<mxfile host="app.diagrams.net" modified="2020-09-18T08:31:27.299Z" agent="5.0 (Windows NT 10.0; WOW64) AppleWebKit/537.36 (KHTML, like Gecko) Chrome/79.0.3945.117 Safari/537.36" etag="KlYykBoqw5ZF5sZoBqTi" version="13.7.3" type="github">
  <diagram id="MpHEKlXF1QLkBFRLMlRv" name="Page-1">
    <mxGraphModel dx="1422" dy="761" grid="0" gridSize="10" guides="1" tooltips="1" connect="1" arrows="1" fold="1" page="1" pageScale="1" pageWidth="827" pageHeight="1169" math="0" shadow="0">
      <root>
        <mxCell id="0" />
        <mxCell id="1" parent="0" />
        <mxCell id="61mjYRbphMOwMdPB8GLv-6" style="edgeStyle=orthogonalEdgeStyle;rounded=0;orthogonalLoop=1;jettySize=auto;html=1;exitX=1;exitY=0;exitDx=0;exitDy=0;entryX=0;entryY=0.5;entryDx=0;entryDy=0;" edge="1" parent="1" source="61mjYRbphMOwMdPB8GLv-1" target="61mjYRbphMOwMdPB8GLv-2">
          <mxGeometry relative="1" as="geometry" />
        </mxCell>
        <mxCell id="61mjYRbphMOwMdPB8GLv-13" style="edgeStyle=orthogonalEdgeStyle;rounded=0;orthogonalLoop=1;jettySize=auto;html=1;exitX=1;exitY=0.5;exitDx=0;exitDy=0;" edge="1" parent="1" source="61mjYRbphMOwMdPB8GLv-1" target="61mjYRbphMOwMdPB8GLv-4">
          <mxGeometry relative="1" as="geometry" />
        </mxCell>
        <mxCell id="61mjYRbphMOwMdPB8GLv-16" style="edgeStyle=orthogonalEdgeStyle;rounded=0;orthogonalLoop=1;jettySize=auto;html=1;exitX=1;exitY=1;exitDx=0;exitDy=0;entryX=0;entryY=0.5;entryDx=0;entryDy=0;" edge="1" parent="1" source="61mjYRbphMOwMdPB8GLv-1" target="61mjYRbphMOwMdPB8GLv-5">
          <mxGeometry relative="1" as="geometry" />
        </mxCell>
        <mxCell id="61mjYRbphMOwMdPB8GLv-1" value="" style="shape=image;verticalLabelPosition=bottom;labelBackgroundColor=#ffffff;verticalAlign=top;aspect=fixed;imageAspect=0;image=data:image/png,iVBORw0KGgoAAAANSUhEUgAAAGYAAABnCAYAAADygzfHAAAeSElEQVR4Ae2dB3hU1bqGsSOgCArq0XvEcy33HFGPyrWAePUgoAIqKiAdAlKSEEiAhARSSJ/03utk0jsJkEBAqlJESuhdepcuZTLvfdZMVjIZdkISQ1GT59msPWvvWeV/1/f/a629E1ocvgDNx91ngxbNUO4+KIJJM5i71GM0g2kGc3e6jLvVlTcrplkxzYppiDqbFdOsmGbFNCvmLlVBM5hmMM3uqSEqaMi9DQr+/sFh3Ox45ZVX+KseN7ONuF5fOM1gmnAg3XEwStRlo1q0aIHpcc899yCPe++9l/vuuw+Z3n///Tz44IP6o2XLljz88MM89NBDtHzwIVo/3IonnniCto88SocnHuffL/8dla0Z82JnMTfSljQfc6KdRuNv8y3BdmaE2I4gfNZIfKyHEO4wCleLr3C0GEznlzrpy7qnRXU7TNvY0M+iP/I74lz0R9qgLvsoXVPKa5RilAqSjZKNNU5lJyQcCaYKzn3388ADDyDAyLT1ww/zSKvWPNWhI11e70y/j94lzssatbc5IfbDiXIeg8Z3Mj7Wg3G1+Bq70V8QPGMMQTNGEz7zO0Lth+NpOYBpZl/weY+3+fszT9OmdRs9dNke4zb+nnPZL2mDuuyjdE0p75aDMTWChCLyxbk4HnzgQYRyhFKEeoRqHnnkEZ56sgO9PuhG3+5dcBg3GPdJQzAf2AOrIf2wGvQZPlOH4mLxDVNH9sF+3ADcLAfhN204gbYjCbYbhvfkIVgN/YyJg/vx+cfv88+XXtTXY9qmhkCp7bsi/w8HRnZGgpBwhGKkaoRSBBgBpU2bNjz3X8/wyUfvYTbgUwb17srgnl0Z93VvBvf6gCG9P2TQf97DcmAvPCwHYz20L9Yj+jNr/AA8rAfjO2043laD8Jw0nDH9P+Tb3t34oMtrtH/sMX19DQFR33v/cGCMO2YMQpwLlRgDEa6sffv2PPO3J+nWpTPDPv+IIX0/oGeXznz29qsM/PAdhvd+n/H9PtYftoP7ETBlJCqLEXiaD8PLfAgqq6F4Ww7Fy2IwE/v34pue79Dt9Zd59eUX6NjhCVq3aqWPd8btaqrzO64Y2QClVKmTxoqRcCQY4boEHKGSR9s8wgvP/Z333ujMp927MLp/Twb17sagHu9i3u9DnL79HL/vhhBkMZyIKaNJmD6W9FkTyHS2JMt1Ckn2Y4meOoIIm+GETB7G8A/foceb/0PX1/+HV/7RibYtW/LQ/Q/ccjBKdpF5SvFEKa9RMUZWopQqgZF5EoacielnXy1b0rp1a71SXn/1Nbq99TpD+33EgJ7d6NftDRxHDWBVjDvbNIHszQrnYG4URwvi+HW+mrOlKZwpVXN6fhKn5yZwsjCa/bkh7M4MYEe6LytCHYi1McOsV3d6dHmNf//rRZ5+oj2tWj5cNaOSbWuKVMkepnlKEJTybhsYoRpxiPgiwIhUujEBpl27djzZoSOvvvA8n3Xvwre9P8Dymz7kuduxLcWfA1kRHM2P4WRRPOdKNFxcnKk/zpelc3ZhKmdL1ZwtSeRosQHO3qxAtiR5sjTEHq8xX2HW9yPefe1l/vHs07Rp1frPCUaJsBwZpiNPujGRL+FIMEIxrVq1qgr6jz32GC8934mP33uT4Z92J27mJL4PdmJPeiDH86M4VZzI2VIDlN+WFXBxaR6XluZzeWkeV5Zkc3lRBmcXJHG8IIzDOUFsU3uxKtqJXI/J2A39VD8J+Oi9t+j092dvKZi67KN0TSmvUYpRKqg2MMagBBjhziQgEV8EHKGc1q1b8fjj7fjv/3qWUV/0xH3iYAq8p7Iq0oUjeZGcKErgzHw1FxZlcGnFHH5bU8qlH+dzcWUxl1YW8tuyXC5/n8b5MjWn5kZzPC+U3enerI9zYVGoPXGOE5hh1h/rEV/y3hv/anIwok/SBnXZR+maUt5tByOhyEmADP7CnbVt15ZX//kidmO+Qe1kzuIgB9bGunM0P4oTcxM4t1DD+SVZXPqhmN9Wz+fCj/P0UC6uyOXSsmwuLE7h3IIETs+N4eScSPZm+LI12ZMl4bNQu1nhZzMch3HfYDX8S+5tUb1yNx48v+f8DwvG2J0JIHK6LFLh0tq1b8f7XV7Da9IwMl0tWRnhxPoET47kR3NiXhK/lqVy7vssLizL58LyAsOxNIfz32dw4ft0zpWp+bU0gVPFsZwqjmZftj/bNSpWxc4mw3USAdZDcTIfhMOEQdx3z71Nrpo/BRihGDkREK5MrGEeffRRur/5Cq7jBlDgPolV0S6UJ3txqAqMhrOLMzi/NJvzy3I5vzyXc0uzubA0i4tLszi3SMPZ0iROzo3lxJxoDuUGsCvdh42JbiwMnE6k7Wj9gtTZfAAP3n//nw+MHBlKaW2uQLowkco4I1IBRShGxBoR/L/u2Z1g6xEUe03mpzh3NiR5cbgwmtNi1rUonYsr8/ht7XwurZ3P5dVFXFlXwrWfxLGQy6vm6qGdWajhyJwY9uUEszvTj60pnmxMmM3qGGcSZo7HZfzXvP1GZ+6558YN19raX598JXuY5inFE6W8RsUY08qMP9fVAWM4Qi1SMSIVYJ5++mlG9O1BjN1YCr2sWR3jRnmKikMFMZwoSeLMolTOLsnk4spcLqzM49KP+ZxbmsmpEjXHS5LZPyeKXXlh7MwNYk9BONvTVGxWe7A52Z3yJA9+jnOlNNAelcVABn76Affd27RxxtgOtZ0rQVDKu+1gJDipHBlnWrZ8iGefeZqxX/Ym0WEC+V7WLAl1YE28C2vj3Fgb58q6ODe2anw5UBDJqQXJnF+SzqHCSLYnq9gQ585PUS6Uq1UcLI7ixMJEDhdFsiddxdZkN7Ylu1Ge4MryCGfCpo1gQO+uTe7OaoNhnK8EQSmvUWCUCpKVS8MrpQKGzJdgDFPl1vrV/9+feQbzb/qgnjWRLOeJlKimsD7Rna0ZAfyc4MGPkY6sjpzFZrU3Bwqi+HVRKsfmRrMvw5+dGhU7NCq2aPzYkRXK1jR/tqeq2JPly+5MH3Zn+LBd7cnqCEcSZ47BZ+xA3nnx+ar2yHb9nlTaoC77KF1TyrutYESnjd2ZgCIDv5iVPffss1h80xf1zAlkOU5kcYAdm1O82JkVzL6CKDZn+PNTghsrwx3YmKjixPwkDuSHsjvNl+0p3qyLmU2x71T8rIaQ7DSRH0LtKU/xYG9eEAfnhLEnI4B1Uc5kuEwgy8aMIgcr2rdq1WRw/vBg5IxMQBHTZgHl0TZt+FvHDozu0wO1w0TyXKdQ5DGZQlcLEuzNSXKdyrIkf9Yk+vBjtDvLgh05mB3J7vQA9ueHcXhuLFvSgtiUHsr8aA+WJ6hYF+vKruwgDsyN5lhJDPtzg1kf50qOqwWrvKdzIN4Py896cW8TTZ3/sGCEWmTAl7FFLjDFzvLj7doztGd3Ml2msMBvBnO8rEmdMY48Xwfmhrmzc04K23NiWZ8SxA+hzhzIDGN3ij97s0I4PjeeX/JjOFwYz7F5ao6VJnNoTgTH5sVyYkESR4tj+CUrhA0xrsxxtWRjkBOH04LJmTm9yRabdxyMbIBSejMfLWOLACSgiNmYWMOIbX/xIGvGgD5kOVuxKs6dzemB/Jzkyd7sMA4UxHCgMJ5t6cGsDHNmdcRsjuXHsi81hP3pwRzJi+Dk/GTOLNDwa4nhOFWYyIm8GE7kRHM4K4S9aX6sDXdkzqzxHNIEszfOl+mff9LkYJTsIvOU4olSXqNijKxEKa0LjHF8Ee5MqEbAEU8thTtr3/Yx7L/+jPSZFiwPc2JnRii7M0M5kBPJ4dxofsmJZIvaj5Uhs1gX7c7JuUnsTQtmhyaAg3kR+lna5RV5XFyWz8WluZydp+FoTiSH0kM5kBHIrjQVa8Jnkmc/hh3RKn6JD8B1yDfc26JpdgGU7GGapwRBKe+OgBFQJBihFgFGrPrbt2vHt93fJcPekoWq6WyOV7FHHcixrCiO58dyKD+GHWnB/BDqxGa1H+e+z+ZIXgy7UgPYlRbI4TmxnF+Ww5VVxfpF54UluZyZm8iRrFD2anzYnuLJ6lB7cmeMYUeMiiPqSGYN/KpZMXJWJqCIwC/dmFCNfCbT5aUXybC3Is/JgjWhzmxP8OFkUSKnSzWcXpDK1pQAlgbYszrClV8XZbMvNZhdal+9O/slO4Jzi7M4Varm4nIBqJDzCzWcLIhir8aXbUnu/BhsR779WPZqQjigiaXbi//d5LMyU5UYf1ZSh1JeoxSjVJCsvL6uTLoxmYoYIx6Wdf5HJ7JnTSN9hjlLfWewI9GP0yVqLizJ5lRpKpsS/ShT2aGePIx1MV6s8LNjiYcN5RFuHM6P5fKKfH4t03BibhyXlmdytkzD0YJwdmnEQlOAsWXOzAkcyotljrMdD+v3zKrXV3W1/2bXpA3qso/SNaW82wpGdkzOzoRSpCsT+2Rt27blhWf/RpajHeppEynztmNLgi9nStSc+z6dMwvT2JURSpmPHanTzChT2bIxXsWPIY6Ux3tzpCiJM2UZnF2SzqmFyZwpS+b0vDgOZgeyQ+3ONrUbK4JsKHKayOmCJGz6Nl3gF337Q4MxnZWJ+CIOAUW8ISPeuLQe8CVpTjbkOlmyNsKFo4XhHC2O4mhxnH5lP9/Hmhx3cxaE2rEgxIYVsTMpC7JhVZQTm1J82JkTzP6icI4viOVEaTS/5PmzK9XTACZwGukO42n5Z9xdVpKeHC1SFbWlEoxcXBorxgDmCd599RUCJn1HlsNEvvezZV9+IHtygynX+LAmbjalQTaUBk1nVaIr5Wpvtqf5sVntxdYUFTtzgtia7Ut5picHikI5tSCGgwXB+j2z7WoPlvhNI3aqWZPFFeN+ShvUZR+la0p5jXJlsgFKqXFDTc8FFBFTZFwRcMQbl2JGJlyZHkyHDnTs0IGuL79Emr0FJV42bM30ZnWCC8vinFiZ6MLKOGfWJYldY1/2p4WxNy2UnWkhbEr2ZV28Bz/GOrMmyYl9hcGcKBGKCWJPpg/b1O4sVE0hdPKIWwpGyS4yTwmCUt5tBSNAyfgioAgXJoK+OASYxx9/nA4CTMeOdHr6SSKtRjHXYwqbUj1ZHGHHoih7VkQ7U+w5nTwnK5aGebM2KYxt81LZWZbOz/mxrE0LodTPlh05wfxSFMbReVHszQlGvDVTHufCHPdJuI0b0AxGSTViuiwCv1hUikOoRszIJBgB56mOHZg+qA95s634We3BOrUrG1M9WRLkQPSEEWimWbIszJe1Yf5sig1hjyaGPcmR7FaHczAvRv9g7XBJNPsKQtid7c/udF9Wh9uT7GCGWd///G4wog+dOnXik0/7Y2sXSXTIOvIirpAVdI5E1UEifH4i0K+QgMA4AoLD65wY3HHFCLWIQ3RK7pkJMK3bGN4rE79yIRXT4cmOfPr2m6TPNGd1/Gy25fixryiMLWl+rIlyZ320D9tiAjiWkcSJHDVHMhM4kBWtX4SKFzdOlyaztyCYLWnebEtXsSHJlRJfGwKshtH1lZd+Fxihdjs7O7KKt+IXfQWVp5YYFy0lHjpKfbUU+GhJctEROO0qPrbHCPIuuz1glAhLH2qqEOPPxmAkHLHIFIeYlRkrpkPHDrzw7DN4W4xgYbAtP6V4sDUzgE0pKjYke7MlLYCtmkA2pwrjB7E9I5j9BVEcnRfPSbFpOT+O9cmuLIu0Y22CM4uCpunV4jjyC97v3LnRYJ577jmKi4v5ecc1pgTqmOamI9Jbx7IUHVcvQcV10FYev57SsXqRjngvCAiM1cNRsp1SXqNijFJBDQEjVSOASHcmJgA1wOgnAR35pMsbRE0zI3GmGaXB9mzQ+LJR40N5mopNqV78EO/C+hQPduYEcHR+LCfLkjkyP5ZduSEU+VqT7SoeIVgQajmQqKnDiLQewaf/+idfvv0O9yj8kpXxQDI9F5OW85euM0Wt5QtvLSM8dMRnabl2TYdWq0WnM6QVFRWIH5HK8+OHrpMYVs6h8/X7vdXbAkaAEJ2UihGpdGUCjtiOEcFfHMKV6Y8nOvB+59fwHzOG2SO+xGfCADQuFiyLdWVzRiA78yLYnRfOtowgtmh82V8QyeGiOI7MS2RPXgQbUnxIcR5H3IxRxNgMI2TiV+R7WaK2H8ebnTqhtrbk6Uceq7dyhMKF+1q8HT4P0dHHV8dglY7t+3V6CMb/CEDyR56L9OSRK+w+oK3X72HecjDGMETnxGcR+I3XMUI1wpWJSYBQjYg1zz/5JFN6f4LPiKF4jv4aN7Mv8LP4llyVNauSvNiYHsC29EB2pofoNzb3ZEewNy+SHdnBrE7woCzMgVDrb/Ez70+45UAK3M1ZETGdXLeJdH/9FYpcHRjeq3e9NzBFoN+6dSuBi3X8J0BLLz8t/X20HDldrZS6FCMUVVGh48QpLYfO624Kp1FgpNtSSk3lL5UiU6EUAUUsLKUbE+fClcnZ2VPt2zGjz2fEjh6Fdc+PCbEchs+4r3Ed2YewKcPI8LBkYaQT69Q+bNH4szFZRbnGj63p/qyOd2dewHTiHUbjO/FLwqwGkOE0mh+i7Vgd78A8HysGfvA2waOGkjTZkrYPPVQv1fTv358rV65gV6zjgyAtPQJ0fOqno2yTAczx41r27dJx9apW79aEYgQMcchzkV65quXohbsIjFSOVI0AJNYxAo5YxwjFiENMm//zWmcKplqRMnw41n0+I9xqGLHTR+M5uh+uI/oQZj2CdPcplEU5s1IcMS4sj3HS7wTM9Z9KvN1IfMd/SbDl16Q6jOSHSFs2pjixLsmRhYE2jO39fwSOHMZyFyf+9/l/1AtMZGSkPoZYFELXMB0fhOjoEajDLF7Hxl+gfLcOV38dhQt0nPrV4MqEgoxdmQAjPp++eO3OK0YCEamciYkgKgO/3CuTMeaZJzoQaWlJwjgzYieZM+ST3sRYjyDDcTxJtqPwGtUX5yGfMHtkX8JthqFxGEOOuwUap7HE2A4jxHIArsN6ETT+K7Jnj2dFhHghw4UtaW6sVzuyLHwqIZNG4jXhOzInTWTiZ59xfz3eY163bp1+9FsW6XgnTEvXEB3/F6SjR4CWgWE6xkZoGemlw8xdi0uslgPHlBUjJgPnL125/WAEAGN3ZgxGnAs3JqDIOCNd2qOPPKJ/UDaqR09+DFSxIMibqNm2jPmiD2rbMczzmky+qzlpDmOInjQYz1F9cB3+CaETBxA9ZQih5t8QYv41IRP6k2A9lFzn71gVNYOtqW7szPJge5YXm9PdWRM/kzyx+jf/jrluThS6u9Hmvpu/Lnvq1Ck9GJfvdXSJ0PJOuI5uejhavXI+8dXxpUrHAE8tgz20jA/QsWSDlouXa7oyAebS5d9uDZi6pssShIwp8rNMhWrEIQAJtYi48tijj/JFz16E21izJNyfJJULE4Z8S6q/B1+++QpzPCexJNiW1bGzWBMzk9VRM/ghzJbF/lYsCZrM6vCp/BwzjU0JdmxMnMWmxJlsVjuxL0fFgaJA9hcFsKfQnx053mzL8GBJ6HRcvxtFtIczS8MDSbO3J26WA6rJFnz4+r/1ExTjwSXOjx8/rgdz+pKOQZla3owQgAzqeT9Ux0chWj6P1DEgWsuw+ApGJekYm1DBhLgK7DWGabRwZXcMTG1ABBgRV6RaBJRnnn6Kfh/3wNfcnEIfL9KdZjI/MhifSeOJc7WnKFzFzK97UxZozYoIW36Kd2SLxo2tqa5sVruwPn4Wa6KnsyHegS0pjmxLc2R7ugvbM1zZmenBoXmhHCkJ5eC8YPYV+rMzT8WOXB+WR8wgYMp4orzcKAzwIW6iOX4TxpAc6E6GjxuTBg3i5eef17dV/NEG0aeVK1fq44OIEeXHdHyVoePNKIN63ovS8WGUlq9SdAzJ0GKWV8G4ORWYF1ZgU1hBworqWCPgnLtVrqwuxciRJhUiUqmSBx98iFYPP8y/XnoJ6+/MCHS0J8rJmfmRASyKCSY/PBhPGxtiZkxhU34ipeEexE8Zycooe36MtuenBEfKNa7syPZmT54/OzK9WZ/goFfHzgw39mR7sjdXxb58Hw4U+XF8YRRHSsL0YPYW+rMr34cduSo9mHx/RzynTaYsKYZSLw+y7W0JcHNgXUkaq6MCmOvvjYv1ZD567z3at22Lr6+vXjECjJhpCTjfZOjoEqXl3TgdHyVqGVSgY/T865gv1jJpWQUOP2hZdbiCK2InoHJ2JhRz6sItCv4NASOg3H/vfTzWpg0D+vUlcLYzc/x9WBykItPDCSdrK5YUp7AgJojkyCCsxo9lVVoMR0rSmefuQK6zJT8lOrMm3pF1ieJBmCvbMr3Yk+/P/jlB7Mz0YmemJ/vyfDlQGMDBohAOFYdyZH4Ix8uiOVISzoHiIPbk+7Er35ftOd4sC7djcYw38d6uRHi5k+HmSv7MmfjPsmVRXgyH1s6lLDUSjbc7C6JCyAr0RTV7NpcuXdKrxjAN1nH0vA6nRVo+TdXycZqWEWUVTFh+HZu1WgK2VrDvfPXKX4K5cvUaRy/egenyn/UvL3Xv3p3y8nLhiapcmlDP9QodG4/r8F2rY+zKCqzXV1B0uILz1wzuS9xj/J3zv2k5fCcWmH9WMJ07d8bR0bFKMcLg0q2JdMMJLdPXV7DhjJar16tnYlIpIr146RLHLtzCLRmlFb/M+7OCEf169dVXuXr1alWsMQZz4pKWgxcN8ccYhjy/du0ay5avvOk0WYaJBm3JyC/9ldMjF3T8evEq17WG+CGCufgRqQAlUuM8cX7tev3cl7Fdm8E08u9nnrio5cJv17l2/XqtYK5eu46IKfV1X81gGgnD2HCGcx3HLuo4deGqfpvl8m+/6Vf1Yp0ipsT62Vc9Av2N5Tb/bxj19vlKxruVec2urMnUU78nk/WF2QymGUzTjqj6jrw/6n2/TzF544y2+MeR0pjRV6MMoz+IMHoeK1VdjcqvvjYsT0DehcvbIq8rLhuVoM9jmHjZ4u0gVtbarqYoQ6nuuvIq26V/EaS2tv+e4C8MWmena2ucwRgG4yrcowdVC+SNQbzVQl4zlPPW2115S7XrhiBeBbXONjZFGQp9uMlAqGpvHX1tpGJEh2qnXbf7qAuMYTTVBi1ldAuqr1WWozKGJY1U2T7VzQZPU5Qh66xHWmNgiftrt0XjwIgK3g7CZXS1e6kaBfrRYixXcY8c5Sb5JqNZP8pN8qog36DQ6k4JYDXql/fK9CYjWMCuXxmyzsp+VLXVpF9V/TWBJdozel4Ndd9Qb2VbGwdGVNDCaPTqR4JUkKGRNxiqqrGycyaNrlGGyTXFkWVUjr49Er5JfpXxTMsUn03uVWpjDbiG+6sHmijjZv2trlc/8JoOjPFoqDR+jcYaKq4ir3CthgGMjVE1kg0drgGz6hocvsEFmBi1skz9943rNz6vNKDhQZ4cREZg6lWG8f2VBq9Rh4SgcJ/oj7i36cDIyozSSldmPNu5ORglYxjKNARqOeKN6qmEU1W2MSxTwJUGEu61CrCi0YzLNzHgTcswuV8a+wZVivtkf43qu6E9CuVV9rFxrsx4dImCarihWqRd1XjTxhjurw7qRh3RN1JcV+ikKZgqRRgBvsEQpmUrt6WGq6pRhun9oryb9LeGbUy+X6Psmm1rJJjqBsln/DUNa2isvFajoxeoXp+YTCCq729RLXlFNybqN+mkLNfYVdTRccOkoqFl3Hi/oZw6+lsDjBzEctJkNIgqlSInO78DTE3CssDmtGns0gzGZKTeLQOrGUwzmKaR+N0yom91O5oV06yYZsU0RGXNimlWTLNi/mCKMV6cma7wja/VvhhrSIfrf6+h7qrtndusrDvsygwr6arOi5V6jR3eahhiv8x0A7D+Rm64WuWDtqq2/aXA3LDdUtuWR+XObNV+W8MN3SCIol2V20V/TTBCIcZ7WxcUHlhVjlTlHWYBSLicrrjkiSeZhj0o/b6dXn2Gz9XGleCNXaTRcyV9XfKe2tvSIMiNVNoddWU3fXCkV5SRsRU7WWlkqSYJRAKvoUqD0avdZaUSq9xnTRi1D4ZbrNgLv+dlDEUjNbDBDVSM8ssflYqpelOmrs/Vaqge9UZ5oj0ScB3qrf5uA/vbAJvdUcXon+gZGUJpK7/aCKYGl0Yxza/rsxGEKiPJPENa49GD/FszNdoo67216Z0FY/pMxXjEChck3ZF81iINpHdPcmpdFwhhPOPrlcY3LdfIlVUPhJpuzTj/dpzfYTB1PziSU1bDKK6eOt/4xFRCMgVh+rlSHaPr96LiXzfGVLmTW+sWqke4dFu3q77G13PnFXNb4TSDqfFSW/WIbfwIapoymsHcpWDu9MCof/1/MVdWf8M0jUIbX18zmNsa4+oPqhnM3QpG/7vQzf/cdRZocde1qLlBegv8P8+8TPqCvOvUAAAAAElFTkSuQmCC;" vertex="1" parent="1">
          <mxGeometry x="20" y="260" width="102" height="103" as="geometry" />
        </mxCell>
        <mxCell id="61mjYRbphMOwMdPB8GLv-10" style="edgeStyle=orthogonalEdgeStyle;rounded=0;orthogonalLoop=1;jettySize=auto;html=1;" edge="1" parent="1" source="61mjYRbphMOwMdPB8GLv-2" target="61mjYRbphMOwMdPB8GLv-3">
          <mxGeometry relative="1" as="geometry" />
        </mxCell>
        <mxCell id="61mjYRbphMOwMdPB8GLv-2" value="" style="shape=image;verticalLabelPosition=bottom;labelBackgroundColor=#ffffff;verticalAlign=top;aspect=fixed;imageAspect=0;image=data:image/png,iVBORw0KGgoAAAANSUhEUgAAAGYAAABgCAYAAADvhgd/AAAgAElEQVR4Ae2dd1RWV9a40zT2XlJnksxk0py0yeRLzMT0mMSYaCxRsRdEUEBQeu+9vLSXJr2DSFWxi8ZuFMWGvaRXk3zzx6z1Pb+1Lxy4vKKJisr8Fq511jm3vOfuvZ+99zn33Mv1Njr/dUgL3NYhpeoUik4wHdQJOsH8t4D5v//7P/7zn//w73//m99++41ff/21s9wAG4htxcZia7G56b9LIkZOvO22266p3H777ahyxx13IOXOO+/Uyl133YWUrl27cvfdd2ulW7dudO/eHamlyLEePXpoRe1X2z179kRKjx5S92Do0KEMGDCAewYN5NnHHsXS7GOCl8zCw2I8ATZTiHOZSbzzdAyO00j0nMeiqR/w0t//Rv/efbjzjjuuWj+9Xvq2qZ6ir+wTXbt06aLpJG3Rr1evPtx9d3dtX69evfjqq680pxebm/67BIxQvFYw8jsltKr1githRWCBI8aXooelgChYsi1wevboSe9evejfry/33TuYF4Y9xui3RzB30mi8F5qRHWZHTthiMoMWkeZvRbKXOdFLpxNmZ4bRYx7xnvOxnzWW9179B38aOpi77rpTk/WP6qr0uVytnFB0FDhKR9FD6dqrV2+6dWvUR8DU1dVpcMTmpv8uASMh9keFNT2vLaGVwCpyRGDlSbJPQVG1QFBwevTorsEYMnAgD953Lw/dfz8vPjOMT0e/jfXsiSydO54En4UUxjiRF2lPdpgt6QGLSHCfR+SSaQTbTiJ4sRlhS6cR5zYX17kf429rxpRRI/jLg/fStUuXq9K1Lf3UPqWngFFFdFJ6CRzRrTFyeiFgamtrOXPmjDZk/C4YGVNMDf5Ht5WQ+loJrMDohVaAunbt0jqVdW9MZwP69+NPD9zLP59+nA9ee4lP3hmBzczxWE8fi+2MT3CeO4EA2+lEOc/By2oS/jbTiHSaS5y7BaGLp+NlMR53i3H42Uwiymk2vpbjiXCYgb/NZD56/UV69+xxVVEjdtDrpm8rPZV+UgsMAaP0FIeTIim5d+/erFmzhhMnTmjp7IaB0Qtp2hahVRFASmgRXEqXLo1KSFuE7tWjJ/369uWvDz3Iy88N4+2Xn2PiyH9hPuE9Zox+g/FvvMSkt19h+sgRzPv4HWwmf4j5JyOxnToGx9njCbSdhc/CaTjPHY/T3HEatAiH2QTbTiHIZjJhS6Yyd9zbPPGXh+nTu5cm29U6nymktsCoiJFaHykSOX379r05YPSCKiUVID0UASMeJBDUOKIAKTB9+vThgfvu4+Xnn9GiZMoHbzLj4zeZO+YdZrw7gjnvv8H8D9/G8qN3WThmJLbjR2H36YcsnjSapVPG4G1uhp/VDNzMP8V53gS8LM0I1iLoE9zMx+C76FMWmX3IK/94mnuGDrkqMEo3VSsdpVZwVHZQeopeAkOiRE1iJJXdlIjRgxEh9dt6MNKWiFFepMYTfS3e9Nijj/Luq8MZP/I1Jr/3GjPefx1ns0+ItJpF8tIFLHOwJMvFmhw3W61etmQBsdazibKaSazNHOLszYm0nY2/pRleFpPwsZiI6+wxOM/5BPuZHzH5g9d45olHGdi/33WBaUtPpa/SU3RVaUycUSBJ6TBg9B4lwqpIUZBEaPGoAf37M+yJx3n31ZcZ89ZwLV35z5tCkbcda6O82RofyK7kUPZnRFOfFcvBjFg+T45ga2wgG6N92WjwZV2kF5VBTuR4LCTWbhbBCybjMWcClhPfZ/zbL/Pq839n6IAB9OrRQ5tFqQi4lto0akzBiJ56IKLjLQGjV04JrYRVqUwf5qotwvfu3YuhQ4bw/LAnGfvOCGaNeZsgy6mUBbmwNcGfvakRHMqK5XhBImeXp3J+RToXSrP4sjSTc6XpnCtN49yKNE6XJHMsN5Z9y0LYEO1OkdciDNYzsB47kvdefIZXnhnGQw88oM3MVITr5f6jbaWfqvV66iNGdFMDv6Qxad+0iBFl9Eq2Jawa/EXoLhI1XRpnLSK4eFaf3r155E8PMGbkCOxmjcPfyoxCX3u2xPmzOyWUg5kGTuQncqY4ha8qMvmmKptvqvL4YVUBP9YUauWH1QV8tzKPbyozuLA8iaM5Uew0+rI62IEYq6mMG/4P3njhWR576BH69+9/zbNQBU/pqWo9HHE6lR0kSgTITU9lSlB9LcKKoKpWA6PUXbt0pXuXxpQmYEQJGV+eH/YE5pNG4WszlWxfW9YZPNmZFMj+jAiO5sdwpiSRCyvS+bY6F4HwY00JFzeW8+vmSn7ZXMbFjaX8vLaYn1bl8l1FOheKEjm0LJQd8d6sDHHAesxbjHn9RZ55/FG63t21XcHooegjRk0ApBY4N226rIehbysgeoGl3Sx0l8abMIEiAt83dAij3ngFi0mjCLefQ2moIxvjfdibFsbhHAMnCuI5V5rC19WZfF9TyA8byri4rYZfdq3lf/es5393ruG3z1byy6ZSLq4v5oeV2XxdlsqJXAP7kwKoNbiT6jSfGe+/wmsvPkuXu+66oWBELxU1MraoiLmpszI9ENVW4a0AqVSmBFZCi8Ddunfj3kGD+PjNV7Ga9CEhi2ZQGrSU2gQ/6rIiaSiM51RxAhfKUvhmZRY/rinmpy3V/LZ3E7/u26iV3/au55ftq7i4eQU/byjmh9U5fFO2jLP5cdSnBrPT6ENViANBi8yYPf49Bvbp3S5gLpcVRD8VLQJD4Ei0dDgwooASVmqJHBXe3e6+m/sGDWq8w588mijrGVQEObA90Z9DuVGcKEngdImxGcz3q4v4YeMKft5Syc87a7i4ey0/b1/Fz1sr+WnTcn5cV8APqxoj5mxBPMcyItifEsjaSGdSXBfgtuBTHn/oAW6/rXF6r5zpWmrleKpWDijji+ipxpdmXbt1u7mDv6lSphGj0pg2+DeBEeGl9OjenYcfuJ8Zn4zEedY40pwsWBvpxu7UIA7nGTi53MjpkiTOl6XxzcpsvltVyI/rS7m4qZyfNpfz02dVXPysmp83l/PjxhK+X5vHdysz+ao0BQFzMsfAwbQQNhtcSXGah9OsMbz36j+5o+m+y1T2P7qt19EUjEDRxtOmlXM1OxN9b+qszFQZEVT2KYEVEBGsW9e7tYjp0rULPWRZvHs3nn3ibyyc8jEBFpMp9rVlU4wnu1ODOZIfw4kSI6eKk7hQns63q/P4YX0Jv2xbyW87VvPLztVc3LGKi5LGtlXzc20ZP64v4ruVuXxZmsq5AiOncmI4nB7G9nhPCr2scZz+EfPNPqJfr57c1g5wTNOZ0lVlBT0USd0dBozeszSh72ycMguknt2607tHD15+/mkWTPoAg91MKkKWsim2EcyhPAMNRfGcLEniQkUG39UU8JMM8NtX8evOGn7Zu1YrF/esaWzvquGXLeX8uKaAbyoyuFCUxKncGI5khLM70Z9VQUvxmj4GS7MxDOjdi9tuv7ZnUMoR9VCkLUWlM9FVdFRpTKJIIN1yMAqICCtCSlHhLcLK2NK3dx/69e3HuyNe0ta8ljlZsirMhc2x3uxICmRvWij70sM4nB9DQ7GRk6UpfFGdw7frivhhUyk/bynn1+1V/Lq9Wiu/bK3UouanDSV8U53N+dIUjufFcjA9lF1GX9aGOJK4eBbzJ7zPg/cObddxRoFR+goUzRGbZp4SLR0iYhQYqQWIFPEaEViKjC2yoiwD/4S3RmA3+SMyXBayOtSFTQZPrWyJ89bAHCmI0+DsSQ9hq9GX7UY/9qQGc7wwnm/X5PPDhhK+rcnn7PIUGvLjOZIfx8HcaA7kRnEwN4xdqT5siXWnJtSRAq9FzP/kbf58/73tBkbpquAoXcUBpSidbzkY/fiiwCjv0aJFWx/roS3zv/n3YXhO/pSlUz8hzXkha8LdmsB48FmCH/uWhXMwK5r63FgOFSZQlx3JruRAdiX5cjAjnC+rsrQUd740Vbuh3BnnQ63Bkx2JAdRlhlOfG05dZhBbDG6sDFpCia8tNhM/4IGhg9oNjNJXARIwKksIFHFIKaL7LU1lSlDlQXoo4jUyr5dn+AMH9Mdh1EfEz56J56xJpDpZsckgaSyAbYl+bIz2oNp/CSt8l5Lj70RlQhB1hUZ2p4ayLy1EA3R6eQrfrszjVEEC+5OD2GX0Z4PBi3XxAWwyBrDJ4MFn8Z5si/NkfYQL5UFLcDAbw/2DBlw3GAVCX4vOKkNILTBEfxU1txyMHo7yGqkVmD69ejOk/wCMs80pdrAjxnI2GQ6WbI3zpS4rnLrscLYZ/agJdWZVmDvLI33YkBnD6dUFHC5IpqEkhW2JARzKNHCheBnHsqI5kBFOXZaBtbF+5IW6Ux7tQ2WgA1X+tmyN82Bnsi9rwp0InD2J5/70Z267znsZPRDV1oNRDqkiRvTvEGCUkHow4kFy4yUvWdzTfyAp862o9nKmyNWWXCcramN8qM+N1gb7w/lxWuqqzzZwKM/IibJMzlblcqYih5Mr0tidEsyB5DDO5CRwLDOaQ9kGTpSkcKggkT05cezPiWNbgi8bo1zYlxHIodwILYLSbOcxfcSIdpkuCxBxQuWIsq1SmdSiu+isyi0HIwIqMPpBXwSUqJEV5aEDBxEwyYwabzeqfJzJdbSiJtSVusxIThYncWZ5KieLkjldmMTZ4hTOl2fxRWUu58uzaSgwsjc1mANJYZzJNXI8M4aDaeGcLErkXFkaZ1ekcaoomWPZkRxIC6EhP4ZjudFsNnhS5mHH3DffbLeIMQWj9JZa6d5hwCgPUsIpwQSKRIw8Sh48aBDW733Iak83Kj2dybRfQKm3HbsSgzieE8vZ/ETO5SdzoTCVL0vS+ao8h6+rcrhQma3d2+xOCeJAagTnClM5lWfkYGqYNj2+UJbGFxWZfFmWwbn8JI6nG2hIj+ZQWhjrI1yp9nLkg6efve4xRgFRuraVziRiVNRIfcsjRgkrYNTgJ1BkIU8W9OSZyODBg5k24i3WeHlR6eNKht0C8pwXUhvlTX1KBCczYjmfl8TXZdl8t7KQ79eV8vPGUi5UZnG0II7tiX7UpUVwvjSD88vTqV8WwbFsg3YP8/2aQn6oKeDbFdmczTRyJCmM/UmB1AQ5sNLDkZFPP3NDwKhokUgRvUVnubEUx5TtWw5G5V69oCKkWmmVNyoFzCuPP0mljxdrQ/3IcbQm29GStSFu7E0IpiEjhi8KUzUoF2ur+HlTOV+tzKI+K4Z9aTJtDuJQZizfrCrk25pCjmTLzWQkZ5an8P3aQi5uKuXH1QV8VZDK4aQwdhh8qPK0YZ23Cx888/wNByNwBIhEikARm3QIMPrQFiElhall8H79+mlgHr7/foy2i1gb4UeOizVZDgtY6e/EdoMfR9Oi+aIole9WF/DT+uV8VZnF+RXLqM+IYXtcAFtjvNkZH8j5sky+rs7VImZPQiAncuM4V5jEd9W5/Lgmn69LU2lIj2BLhCslzlasCXDn8aFDueM6Z2X6VKYyhOisnFGlMRU9HSaVKWHVLEW8R6JGUpmAGThwIPcMvQe7iRNYHRNKlqstmUstqPBdQm2EJ4dSIjhXkMQ35Rl8XZaB3ER+tTKX4wXJbA71pNjBklJXG3bEBLLHGEqNjwOfhXlxMjuO03kJnCtI4NuKNL4qTeVoZgQ1wQ6UOC8iedF8etx5/Q/L2gIjUJRDit5Kd4mYW57KRDAFRQQVgcRbBIzkW4kaeZw8aNAgrbzwxBMEzTdnmb01mQ4LKPdbwrpQN/YZA7VFyHOFCdoS/pcVGXxTU8jxghTWhXuwImAJK0OcWR/mSZWfAyVu1myJ8qEhJ46zsoCZF8u5onjOFcZzICWISl9bKjzssB/zIV0kWq5zEVOBUfoqnUVfASK6q+iRqJF9tzSVKY+RWgRTULRo6dmLnr0a3+OVCYCaBDz8wH1MeeNV0pdYUOm3hLVhLmyP9dE8/XRRLOdXJHOmPIPjy1P5PCOaikBH8gJsKQt1oCJwCSv8bSj1t2ZVqCP7UsNoyI/jZHE8J4tjaciNYEesO1V+iwmZPZVHBshd//WtLCsoCobaVrrrI0XaAkaO3VIwSlgFRkWMRIvc8ffp21ebLkvEyCRAUtqQwYN5/+V/krDYnHJfezZGumt3/kfyDZxaHs/hQgN7syLYnR7GthR/VhucqYpxZl2cB9uMAWyO82R1hCNrolzZkRpMfX4Mh4piOL48lqP5kXwW60aZny0v/uVhzVmUIduzVvoqKKoW/dU4c0vBKK9RoawGQQ1Mnz4aDJmRqaJS2svPPU2A+VSKPGzYEOXGzhR/jhYZOFQUweYkH2rTAtiRGcTO1CB2JQewLy2CI+nRnMlN5mSWkfrUSPalhbEvJ5zdmcHsyQrhxIp4TiyPZVuCOzlui3hw4IDrvuNvC6ZeZwGiT2ECRdngpoFRAumFVftEOPEWAaItw/Tu3eoeRoFR9bC//ZXFE0eT7mhBTbgTnxl9qc+Nor4gnM3JbnyW6sP25AA2BHmw3t+VHYnh7E41UBsdwra4SLbFhrE5xJvN4e5sTfJkZ4Yfx8viOVwQyZYYV2KsZ3L/4IHXfcev11XaSl+plTOqWnSXImAE0E0DYyqkXlC91yg4auBXMFQt6ezB++5j/Jv/InrRDCr8llIb483e9BCOFEVxuCiSY0Xx7E+LZHdsMLuigqmNDGZLbBQVvl5siYliuzGG7VFh7IiQN2zCOVQcxbHlBnYv82dtuCNu08YysB0eKbels9oncCRiVK2AqAnBLQOjvEdBUeOLzMgkamQ2pu5hFBSpJZ0NGTSIN154Bo9Z48l0sWBNpCtbE33YlxPK4aJojhbGcyw/gfqMaA6nxXA0LYkTaWmcSE3jeEoqh40J7I+PoD4tSnskfWx5HAdyw9mW6Ks9IBvzr3/QXXvZr2XhURn0Wmulr/xe2ipSpFa6CygptzRilKBKQBFGokXd9csaWeNMbFDLGDN4MEOGDOGvDz3E6FdfxnbCKAItJlHgbUNVmCM1Bhd2pgVzUF6syInlWF4sR3JiqM+UN2BiOZgWR12qgf0pkRzKMNCQn8ChXAM7M4LYGO/O6ggnIhZN5e+P/Inb22mKbApSr7d+jJG2ABI7SH3TIkYJpARV21ILHBFIoCg4ap1MIkRFjLxQ/tQjj2L29khsxo7GfsIo3Kd9jMFmOlnuVmR6WFET58GBXAOHcmM4nBdDfY6BXcuCqTX6sjnJj8+WBbFPe0HQyPHiRPZkhFEeZk+J/yKWOc7D+qORvPrYk3S5hj+SVbq1VYuesl+vtx6MctCbHjFKICW02haBlDDqxlIAScSou34BI9PkR+5/gKmvv43vJDMWvT8Stykf4ztzLH5zxhGxyIxYuxkUBdqxJyuCI4XxHC9JpKE4mbqcKLYlB7A1yV8DcaQwjpOlyUi9OcmXDPf5GJdMx2PqGN577lm8J0xh2AMSNe2Xykz1lr4lMkR/qRUktX1TIkZBUMLpPUeBEeH0YCRiZJyRoi3JDBrMhJdeIWjKNNzHT2D66yPwmTEOo81MAueMx2fOOEIWTMLoaM7aeB/258VwckUqp1ak0VCcwuH8BOqyopGHaseXJ3O8JIm9meEUB9kTt2QmIRYTWPjxO/z9zw/hNXESNqM/ons7vLus11mvt9hEr7uAUXBu2hijwLRVi3BKQAWm8Vl/Ty1q1HrZiCefJMvCiuSZs7F+fxTj/jWcgDkTyXezIs56Gn6zx+IrcCynkOm9kNXxPnyeG82hgngO5xo5kp9IfU5848sa+XF8nhVFTYwniY5zCVkwkSirSdiOG8n/PP4o8995h+T5lrz48F/bLWoup7sCoq9vyRjTloAilHiJgJEiqUw9j+nTpy/3DhqAr5kZ5daLiZ9rzvR33+XD//kHQXMnssLPljz3BcRameEzcww+sxrhpLpbURXjwbaMUPZmRrIv08CetEj2ZkSyMy2cNTFepLtbEGE5iVgbM/Lc5uM5YwyvPPUYFqNGsWzGXBw+/oQ775B0dv0prS29lVNKrU9nNy1i2gphU6FEMAVHgZHI6duvD5PfeI1qLy/yPVwIX7qYCW+9zqTXX8K4eDbVwUupCl5CkacVCdbTCZ45Du+pH+E3dwIGuxlURLqywejD+jgf1klt9KU62p1M9wVEL5pMou1USrwXsDLEhhTHOYx46jHMx44lwdyKTHsH7u834KaA0dtDHPWGjjGmXiIXl316IVRbRY1AUQ/J+vTtw9/+/CBZS+1ZHRFCVlQAQUutsRj9Hq5TxlDoJc9nnNgQ5cr6SBcq/BeT62hOgtUUAmaMxXvqaGIXTSPTdT7pzvPI8bRimYs5ifYzSbGbTr6bOdXB1myKcWBLvBOVITbYjn2HeR++T4qTIyt9fRn9wos3JJ0pvduqb3gqMwVjui0wRAgVLXL326t7D/r07EX/vn25Z8gQbMZPYFNcLFGuzgS72hFhb4HdxyNJd5xHVcgS1kfL3196sT3Rh8+M3myIdqIq0IYiD3OyHWeSuWQWeY6ztVLgMo9Cj/ms8LViTehitsQ6sjPFlb3pnuxa5sE6gyORCyZj/u5b+FotYFVMNAarhfzzsSe0l9zbY6XZ1AYCRuwgtRxTNrlhEWMqgGzrvUMEkCLpS0q3u+XmUv7evRd/vvceRr/6L5xnzSbP25uK8DB8LCzIivIlw8OOeKsZrApzZGOsG7UJ7uxI8WJvhj/7s4OoywxkT6oPW+Oc2RBhx8YIe7bGLmVbvAPb4h3ZGufEtkQX9qZ7UJ/nz+HCIA7mBbA33YtaozsJNjOxHv0uLpbmlCXGk2xnT/BCK9wWmPPqc88zuN9ATW7T2dbVbCvb6O2h2uKcYpebCkZ5gx6KNth360bfPr157qmnWPDpFOIcHFkRGkJxSCC5EWH4z7fQnlzWZsdR6LuUqkA7tiZ6sj3Fl+0p3uxK82FfVgD1BWE0LI/mSFGEtr072ZM9KV7sT/ekLkNqL/ZneFOfF8CJ0ghOl0dxfHk4hwqC+DzTmy1GN1LtZ+ExZSwZwX5Ee3pQFW0gw9sTY6AH6Z7uxNraYvbuezw49B7uuvPO5nfF2guMss0NB6NCVIWpbN8lnyGRty27ddM+XTXylVfwsbIiyc0Dn0ULqUiOY112EhvyMvBwXEKkpytHyzKoyzVS5LqYjTHu7JXIyAhkV1oAu9P9+DzTn4N5IRwrieJkWSwnVsRwKD+EA1n+HMyWvzrzpz43gCOFwZwqi+JsVQxnKg00LA/XImaPREy8MxmOc4mwnMzm/GSCnB3IiYwk29eH9Bh/DqwuoK5oGatiI4n1cMV+zmxeGDaMu7t2017YkFR3NelORY7KJlJLWm/3iDG9kCkUuaCEas/uPXjiL48ycfQYfJc6kOntQ6WPLxlubgS4LKW2qojUMD9y4w3kJkexuSqPvUXp1Hp6ETdlEpuMXtTlhlKXG8bnWcF8nhGggTmQG9wM5lR5HKfK5Q+aImkoCuN4cSgNJWEalHNVsZyrjuV0RTTHSsKoy/FjT7oPGw1O5LlbEjhtHLtLMghaaoevjT0J7i4si/Rnx+os6jcVsSo3gcxgX1ZGhlAaGkyokyPvvv4aPbt3v6o3avT2Um2V0to9YvQXkLYWIbIW1rULvXv04pknnsTZwoKCOAOJwUH4Wi4kZu584mfNx33mLCI9nEiP8GdFVhKZcVEc2VHNhSMbqU02kjnyU0ot5IVydw7khXEwP4L9ueHszw5lX1YQAuZocSSnK+I5U5nA2ap4zlbGc7pcVgGiOV0Ww9lKgRKnlVMVkvbkt37sTZOvZniQ62pD0CcTqM1IYuWyeKLtl2L0dMfefBZVBQkc3VlBbU0e2QkRrAoPZoOfL8tDA8mKCSXc1ZlxI9/nvsEDufMqlnOUnZQjS31VYEy/VyYd6nOrHorKlTKwy5/qPfPEU8yZNIVCo4Gt+WlszDSS4uFGsqUtxZa2pJnNJXiOJZVxUZTGRpAZG8XezVWcPbCaczurqZixmJJRs9los5jN4S4cyAvnYH4kB6TkRVCXE9wMRqCcq07kwqpEzq80ckFKtZEvViXy5epEvlht5PzKeATMsZJwDuQG8nmmH2sjXUifNxfDe59SZOvAnoIM1qYaSXJwwHnmDJJCPKnMS6A8NwF/BzvCFy0kz34psXZLCPVxYX1ZOiuSoylMjGb+dDMGD5Q/4bj0nYHL2U1spiBd1ffK5Gtz8klA+fqc/FCodpb2t4HY9qq+8CffZ5SPyQkc+fqcfOiss7S/DcS2V/VNzM6vyN6cr+Ze9VdkTT8B2Ll9ayxwycdKb40YnVc1tUAnGFOLdJDtTjAdBISpGJ1gTC3SQbavHUy1ue7G05zqa1GoVR+6mzTzahqihuv6bzlmrl2ogajhsm84UQ1tXbgac7npGx5Fm4e1n7RHH21d+0r7muTSbkgvJ3vj768NjBj0ikpfTrhGYzQat41zNFCXgdwQxfDb1LHGfoYPH87wNsg0Q72ijO3RRxs6XHZX0/WUvFfSFa7l/4+RC1yZ9mVlo1G4tsE0elPbx6Da/DZajjX1E6WHpa7aJF/U7zlPe/ShrvkH6laOJedfyRbXAkYuMDyKKPOW9NLaa/XhKucoLzfZb+LNmpeb7GtW95IIbVFKgLW6vjpX1c2dmDautg91fpMezbKa6NWsr8n1RJ4Wz9IOXiK77idXn8rkArfpvFfzBBVBjUJeYqhmYZVyOgmk2aoPk2NtepauH00eBd9kf7PxTPvULqqNU5qt/lAfjX23OJr08Xv6tlxXc7z2A6P3hibjixImCjeTb+NY65DVGa5Z5sZ9rWA2H1PQlOHVAX0/ut/rr69vNxmwcZVcOdHV9qE/v0mOVtdoSza1Txje6IhpSmX62c7vg2nLGI1CNw7UpoZvUai575Zdl+bnJgNJem0G3KbR9J2YGPp3+zA5X7pq8xpyntJXd71Lzm2jP93pV5/KmlJLswFapaHLhHZzhJkK03i+SYTrxJPjbSh5SXpTka0DfIkhdN1qzTpCgvcAAAIrSURBVLZlaZWqWvVher508jv6trKNye9b9W0q27UM/lofyhCNE4DWhm19rJWiWmZquj8xmUDoH8Y1D5KaYjpjN8tvoqTqVy/I7yjeOsU2dnzJONCqj0uv2firK+jbCoxKy2rS1JZezQpey3S55cedrRtngWtIZTdOmM6eWyzQCabFFh2q1QmmQ+FoEaYTTIstOlSrE0yHwtEiTCeYFlt0qFYnmA6Fo0WYDgJGf5NmeqevP3blm7IWtf77Wx0ATOMddfMSj9xtt1qNboEh62bNqwL//ba/oga3Hswlyy6XW/q43KLhFfX7rz1468FIhOjXuDT761aJdaZte6VZTlAw9WlP98xIW2wcTpQ81Wx6Abw5QrX+9b9rOq954VUnwE1s3nIwlywcmoLRIqqtxVK9lRrBtKTApuhqTolNhlcO0GpxsfGYOqQgmz5z0l/tZrRvOZireYCkjTFterKKGL3J9PvE+PpJhRxr2m61gtz0+7b26bu+Ce2OAaaVsfUGNbWAqYHV8bZ+o99n+rtOMMpyV6j1BjQZ4CXltOSYxnfNFMRW6aixD/1Y1frJ6BXAND3sarlMU1/qOleQ/EYeuvURI9rpxpFW44R6ANb8F1stU+fWL3A0wTVvGdxb93MlMKbX7xz829HhTKLuenvuHGOu14Lq99cDRn6ri8S2nuOry9zEumOksutW+HrAmKaytu+hrlvEq+zg/xMwV6n1f8HpnWA6KKROMB0UzP8DttDsXrIwuoEAAAAASUVORK5CYII=;" vertex="1" parent="1">
          <mxGeometry x="180" y="120" width="102" height="96" as="geometry" />
        </mxCell>
        <mxCell id="61mjYRbphMOwMdPB8GLv-18" style="edgeStyle=orthogonalEdgeStyle;rounded=0;orthogonalLoop=1;jettySize=auto;html=1;exitX=1;exitY=0.5;exitDx=0;exitDy=0;entryX=0;entryY=0.5;entryDx=0;entryDy=0;" edge="1" parent="1" source="61mjYRbphMOwMdPB8GLv-3" target="61mjYRbphMOwMdPB8GLv-17">
          <mxGeometry relative="1" as="geometry" />
        </mxCell>
        <mxCell id="61mjYRbphMOwMdPB8GLv-3" value="" style="shape=image;verticalLabelPosition=bottom;labelBackgroundColor=#ffffff;verticalAlign=top;aspect=fixed;imageAspect=0;image=data:image/png,iVBORw0KGgoAAAANSUhEUgAAAGIAAACDCAYAAAB2vc4pAAAgAElEQVR4Aey9d3Dc+X3ffUdekWRZxY7jx4odxfJjuSiKncSJbEWOHReVWO0k3amdrvOORx4rQBC9L7CLxQJbsL1X7KL33nsHAZAEGwiCBQTbsZ6UZzKT1zOf74KnO0szRzvzzDx/hDOf+e3yiLLf9/fzeX/6Pcb/+fP/ixN47OFv8b/+1//if/7P/8nPfvYz3nnnHR48ePB/5P+DM5CzlTOWs5Yzf/jnXSDkP4Qy36RBk0K3IZMhcy4TtgKmnUUs+LQsBfWciFZyOmHhbK2Vc3U2JfL64fv1BicXGz1cbvZxpcXP1bYgW+0hrnWEuNEV5mZ3lJt9cW711XKzt4ab/bXcUlLH2wN13B5s4M5QE7eHW96VO8Mt3Blp5c5wK3eGWpTcHmzmXRmq5/aQfH0Nt/oTvN2X4FZfNTd7o9zqiXCrK8wt+fktfq41edlq9LBZ71JyudbBxYSNC9VVrMerWItbOFtt5lSkkpMhA8s+HfMuDVPWfEaMWfTqj9BUegh/1i5Kdz9L+gvf4PBPvs3RXT/g6O7nefP57/CFz3+Wj33oKZ54/DEef+wxHvslsrW1pS65nPnDP+8CISgpIIpT6DJkMmzJY9JRyIy7+P1A1FS9C8JDMOS5Vm9HgLjU5FUgJIEIsNUe3AYiwo3uGNd74gqEW/113Blo4K7IYOO2JF/fGWx+99DvDrVwb7iVu/8IiCQozdweauDtwVpubQNxS4DofQhElJsCRHuQm60Brjf7uNrg5kqdU8mlGjsbcSvrMQvnYxbWqi2cjSWBOBEsZ8WvY9FTyqyjiLGqXAYrM2grS6U6/y2M+35MzkvPcPhH3yT1pe+R8tr3OfDK9/nOV/+aP/69T/PJX/0Vdu54/JcCsby8jIAhZ/7wz7tAiMpEst+isSSV7oosBcSUs4hZTwkLfh1L4XJOVBs5XVvFuQa7OngB4KFGCBAXGl1cbhYgfGy2+rjaFuBaR5BrnRGud0UVCDf6argpt3+oiXtDzdxX0qKe9wabuTvYxN0hAaJZPe8OCxAt3BWtGBHt+LncHmnm9kgTbw/Vc2ugLin9tdzsS3CzL8bbvbF3NeJWW1BphWjELwWi2sK5mDkJRNSoNEKAWPJpWXBrmLTnM2zKpLs8jUbNYZwpr1D06vdI+/G3SX3hO6S8+iwpu37I3pe+zzNf+zs+9/uf4cNPP8Xjj/+iVoyOjrKxsaEo4BeAEE6I5x+kuTSNXmMOo9YCkkBoWPTrWIkYWI2bOCNA1CeBkMMXUyXyXiA2W8UsCQhikgSEGDdEE/preXuwntvDzdwdbeX+WDsPRMaTz/ujbdwTGXso7dwb25bxdu6+V8bauCP/blz+bSt3RwWsZu4ON3FHzNVgDXf649zujXGnO8rtzgjvBeOhZohpUloRr+JctZkzMROno8Zt81TOsr+MBXcJU45CRszZ9JYfpa30CMGMN9Hu+j4ZP/o2ac8/w5FXnyV11w94S4D46t/wx7/3b/jIh55mx+O/qBW9vb2sra0p8/RLgagrTqG1LJ1+Ux5jtoL3maaVsIHVapMyS3LoIqIRp+JmBYS8Xm90Kn7YbBWTFOJ6Z4Sb3dsg9NUqM3JHgdDG/YkO7k918WC6mwczPUruT3dzT2Tm53J3ppu7013cm+ri3mTnL8iD6S7eEZnq4p3JTt6R7zvWzN2ROu4N1XJ3IMG93mrudkW53RFWYIiJEr54F4waOxcSVtaqze+CsBqp5ITwhL9MmSfhylFLDoMVmXTr0qkrOIx57wtk/vBbHP7+1zn84jOkvvZ9Dr76Q7733/+Wz/7rT/HhJ3fy+D8HiObSFDrL0xm05DJqy2fSWci0S8O8T8eyABE3c1b4QJkmB2dr7axWW5Scq7Oz3ujmcrOfzVYh6Qg3umLc7BZOEBveoDThzmgr98YFhE4eTHUngZjt4d5cL/fme7m30Mv9+Z+L+nv57w9Bmurm3rbcn+7hwVwfD+b6eWeul5/O9vDOTBf3J1q4O9rAvZF67g/Vca+/hnvd1dztjHK7PcyNJj/XG31ca/Rxtd7D5ToXGwk7a7EqzkRMnA4bWQ1XcjxkYClQxoK3lBlXMePWPIaMmfTq02jXpBI48gb5zz/DoWe/xoEff5OUV77HoVef46Xv/QN/+tnP8NGnnlQaIaT9XuL+QI1o16XQU5HO0DYQ444iplwa5rwCRAWrCTNn622caxBydiogTsWrEJH3F5rEYwqw2SqeUpQbXdXc7BEvpo63BxvfBeLuRDv3Jjt4Z/LnGnFvrkeBcG+xj/sLfTyYT8r9uV5E7gkYsz3cnfn5M/m6n/sKjD4FxoNZ0RwxVQ3cHWng/nAD9wfruN9bw92uam63R7nZHORGU4AbzQG2Gn1cqXOzkXBwPmblbNjMmZCJ1bCRlZCBYwKET8usW6OAEJ7oL0+juzSVuryDVOz+MWk//AYHfvANDr3wDAdf+g6vPfcN/vPn/oCPPfUUOx97XIHwTwKiS59Gb0WGAmLEmk8SiBLmvGUshytZFfdO3NYGMUsOztTYOJ0Q99XO+QYXF5t9XGoOcKUtzJYAIdogQPSLiyluaZIbHgLxYKozaZ7EFM11c2++h/sLvTzYlvvyfr6HB6Ip873cne/hzlwPd+d71VO9nunhvpi22Z5tjejm/kQ7d0ebuDPcyN2hRu4NNnBvoJ47PXFud8a42RbhZmuIG60htpr8XG5ws1Hr4Hzcqsj6dMSImKaVUPn7gJiw5TNszqLfkEaPNpVWTSq+tDfIf+m7HPzBN9j/42+y/yff4rXnvs4X/+RzfPxDH/rnApFOjyGTAVMOw1UFjNmLmHSWMufVsyzqGq/idI2VM3U2ztTaFBAChoAiZulii49LLUEut4W52hHlenecG70JRdByKHdGmrg33sK9yTbuT7XzYLpTyf3pTu7PdvFgrpsH8908WOhRcn++m4dyd64bkTuzXdx5+Jzt4v6MfI8ufjrTzc+mu/mp8M54O/fHtsl7RLywJu4MNnJHnAVxGsSN7ogoHtts8XO52cMF4b1ElYojhKxXo0aOh5MaMe8tVRoxaS9gtEp4Ip0+XRrtJUdI5B2gfO/zpHz/G+z//j+w78ff5I0ffot/+Ov/wmf+1af48NNPv88sSVzxgaapuzyD3oosBky5DFnyGbUVMeEQIMpZDps4WV2lwDiVsCpNEG0QIMQsJYHwc7FVgAix2RHlWk8ccVfF17870sSd0SbuvgeIe1PtChABRcl0Bw9mOrk/18X9+feIvJ/tTspMF/eEvKe7EAAfzLTxznQ7P53qUET9jvDPWJuSe6MSCDYrTXx7qJE7ww28PVDLjd5qrnZF2OwIcbnVz6VmlwLiXI2FM3ETp2KVnIxVcjzyftMkntOoNZeBynQG9Gl0lR6hsegwjpTXlPf01ne/yls//Dq7f/gtvvOVv+H3P/1pnn7yqX+6aeopz6KvIpcBYz5D5gJGqgqZsJcy6ylnKWTkeNTCiZiZk9UWTsbMiqSFH0QjxDRtNPsUEJfaQlzpiLDZmQTjZr+AUced0QZFpPcmW7g70cydyVbuTLRyd1vuyVPs+3Q792Y7kjLTwb2ZDh5Md/COHPZkOw8m2t6VdyZbuD/RzD3lKUns0cK9EXGNxRUWrkjGH2IWbw/Vc7M/wVZ3lCsdIS61Bdho8bHR5OJ8vY0zCTOrAkLEoLThoWkS91044iEQg8YMBvRH6dWl0VaaSihrL0Wv/oB93/0qu7/3VV599h/49lf+hs9++tM89cQT7FA88XM39gM1oteQQ39lntKIQbNoRR7jdgnqdBwLGliJmDgeFc2wqOdKxKiAEQ05W+dgrdHNeouX9RYf55s96vXFtgCXuyJs9ca5MVDLrcE6JW8P1nF7uEFpyZ1RMVuN3BYZbeDOWD13JxrVAd+faEXJeBsPxluTMtbEg7Em3hlr4v6opDsauD3QoJwCcQyEk272i4NQzx2JK4YbuTVQz7W+ai53htho9avfba3JzVqji7VGB2frrJxKmFmJVrAY0LHgL2XeV8ysp4hZdxEzriKmHAWMiQtbmaE8p+6yNDpKj1Cbv5/Kfc9z6Lkvs/uZv+PlZ77Ct/72S3z+//43fPTpp9ghQd12YPf4Y49/sGl6FwhjruIJAWPCXqS8psVAuQJjKVShnvO+MvX3ApBoiYBxptbO2QYn5xpd6nmm3pF8Nrg51+hhrcnLerOPC81+LjT5lQapG9ni43J7kM3OMFe7wlzrjXBrMMGd4TrujohJEY+riQfbYNwbaeDucD13B2t5u7+OGz0Jtjpjip8uNPo43+hlvcnHRovc+ID6eWsNHs7UOThVY+Nkoup9It7gybhJZQ6OhfTM+UqZ8Yjrns+EPYexqhzGrbkqzTFqyn4XiC7dEQVEfeEBnGmvkfH813nzO3/PK898le9++a/4T5/7Az750e1UxzYQoh2PrBH9xpxtIHIYs0m+SW5HGbMerTr8aVcJk45ippwSYyQ9KtESAWO11sapBgcna20sV5tZjFQwHzawGNqWoEEBeSyQfArAAq58/TnhmiY3F9u8bHWHuTWQ2M4l1XNzoEERsGiFAHFnqI7b/Qlu9cRVzLLR4OVUzMrJsJgXcamtynwejxhZDlUiP2/Op2MhWMZiSM9CUKSM+YCOxWAZAsByxKBSOfN+LTPuQiYduYxZsxgyZTBYma5iiFFjFgMV6fSUHUGAaC9NRYDwZr5BwavfYf9zX+XVZ77Cd/7uS/zHP/x9Pv7hD79PIx4JCOGHh6ZJCHvQLKmOfHXoohlj1gJGLHmMVuWr1wKGxBhymOLerkRNLFcnRQCY9uuY8JQw7tIw5ihi1CZeR/Jrx62FiBciEasES2KHJbsr0bu4yJfbfFzvkWxtjfK8rvXWKs24p0xRknCvi/Z0hFXG93TMwpK3TMnxYAXHw5Uc8+uZlUtjK2TUkstIVS7D/0jGHQXMeDQsBHQKiOOxyiQgITFPGgXGiCWTHn0KfeVH6C87QrcuhS5tCp3aI3Rq02gsPkQodw/aPT/g0A++xq5nvsz3vvwl/uJPPsev/epH2SHJv3+KRrwfCNGKbIZMOQwas+mvyFQir+UwH4IgADzkDcUd1WaWIpUsBMuZ8WpVLDJiK2TYWqi4p7dcvk82I+Z8lWYXMETm3JLT0rIcKldpk41mD1c7w1zvruaaSI8QfiMChGiDeD5bHSGuNPk4n7BzIlDBgrOURVcpi+5S5pzFTFblITd4sPwoQ4Z0BuQ2y2eyCP/lMuEsZiVmVEHq+SYn681JvpCA9Vx9FWdqTaxEypjzaBgyCi8coU+XSpf2MJ2lh98FornkMLHCfVQefJ6057/O69/5Ms9++S/52z//M377N3+DnTv/mUD0m5IcIb/0wDYIveXp9BkylEaIqUpyg0mZo7UGJxeavVxs9bPR5uNCq0+RoXDFyYSVY1Ejc/4y9cGHzXkKhHFrEdP2AmYk1e4oYM5VxKKvlJWgntMxExeb3MrPlzSJBIbXJDIeaVZkfXe4QQEhOa1LDU5VR1gNV6j6gaStpYYwYy9g3JzDSGUmQ4YMxkzZiu+m3KXqkpyqtXGlM6RksyvIlc4Alzp8bLR6tgGxcq7ezOkauWgGpp2S9EuC2qtPpVsA0R2hU5dGk+Yw8cL9WFNfJuPFb7Ln2a/x7N9+kS/+6R/xm7/+yWTi712yfpQ4oiKHnspceow59Jqy6TNn0y8FkfJ0evRHlUaM2wpZ8Os5GTNxpsbKWoODC80eLnX42ewOcbU7xLXeKDf6E9wcqOF6fw1bvVE22rycqbOqnJWYjAVPMr086yxERIA45ivleKCMs1EjFxucqpaxJR5Xd4ytnhqVAhfX9f5QI7e6Ylxt9nG5zs6FajNnVTFHz1JAy6KvhEUxN26NAmXeJe/F8xOzY+FMnYsLTT4l5xvcKjNwutbKqdoqVmstrNYIeYsToud4VDhQp7RCua8CRsVRevSpdOlT6ShLpaX0MHXFB3Bl7CL7lW+z57mv8sO//yL/4Y8+za//2kd5YucOHn9sB4+JPP4IQHSVZ9NtyKanIoteAcCYpYAQTRDTJPwghC3acEqKKDWShRWC9SQ1os3PxXYfl0Ta/FySG7stF5q86t+eFo8lamJFOCVUrrRg0VvCghyct4Rlv45T0UrW6+1ckrpGR4itzihb3QkVmUvEfG+4gVsCTqufyxLVy+8iNYSwgZWQnqWglqVAKcvyFDfUo2HGKe5nKVPOMub9lSyFzSyFq5j3G5nx6pl0ljBhK2SsKk+ZSnFbhSMWAyXM+zSqQCZ8NmHLY9QipvoovYY0usuP0qFLpbHkEL7s3eS//j32PPsVnv/qX/KXf/qH/M5v/hoffkqCup2PDkS3Povu8ix6DQJA9rsc8ZAnhBvELAk5nwgZORkxc2rbQ5EUyGLQwKy/jPlgOcciJpZjVZxI2DmZcLAUsTDvr2DGrVMmQsh/1qXhWEAOTs+CV8ucp4R5bwlLwTLFE+el9CpgtItbG+PWgBB2PXeGarnZE1XFp40aG2clnpGKmng+kh8KigNRwpyniEl7nnI7JU80atUwatcy4TEw5jEw5Cqn16al21JInymfYWMeA/osukqEB1IYsWQx4y5i2i2pngKmJZZwFTLhyGfYImY7yZsST7SUphDK24tmzw/Z9/2v8cLX/oqv/KfP89lP/Sa/KmmOx/8JQAhZ91XkKDIVbpC69UhVvtIEIWkR8ZwUGB49ix49s04to+YCBitzGDbnM2ItYaBKQ7elmDZjAc3GAlrNhbRZCuh3lDDm1jFmk9x+PgOVWYzb5PuVMOspVc8JR4FKv4tLeSpuURH7pZYAm1L77o5xs6+aG70xrnYG2Wh0qqracb+eRXeJ8rzk6+Z9WqZdxUzYJRYoZcFXzoLfwLBTS7M+C3/OfsKaoxiP7Eaz70UKdz+H+cAL1GTto0eXRU9ZFo0F+2ku2segKYtxRz7jznym3IXMeDVMe4uZcBYwZs1j2JSjuLNNm0okfx86Cex+9HV2fevv+d5f/jl/8C9+nY8+8SSPPS5m6RFN06AxH5EhU646fDl04QSRYbPkWLLUU95PWooY1GfTln+IrpI0Bgw59JXn0KrJwX90P+ZDr6M/9Dolh3dRnrkHW8EBvIUHaDPmMGKTIDEZEArfSDwi4IqIi9lvzlQf9FjIwOl4FRca3FyWZoR2MVMhrnYEudjqYa3exinRROUlaVjwSzxQrjRzJWxmJWJhKWhm3lfJvM/IfNxBjT4Ta+Yeqk1FpLz6HNqsfaTt+i7Fu7+Pff/LhFLfIJKxh3jOWzQU7qez7Agj1lzGnQVMeQqY9ZcwGyhl1lfCjJRQbYUMGbPpLEujuvAAFQdfJO0n32bfs19n/3e+yX/67d/hozukQLQzCcSjJP1GLBIn5Cv3dMJejARu0+5SJl0aJC3eX5nJoLizphzlP9dm7aE2ay/tmjQa8w9Rl3uQhqIsvJmHMKbvx5R3hMx9r+LUZxOrKiKiz2QyauFYzMqUS0yU1MMrVEJRBYOJKqZcJfQZpYskR/HR8VAl5+JWNmrdXGn0sdnkV8+L9W7W4jZO+iuYd5Yw59Qo3jlTZ1dkfDxmU1ww66lgwW9mvTnCxaEmev1Gak1FNDj07PvxNyjLfIuyo29gz9xLvDCVYNoezG/+GM/Bl6nNeQsxOyOWHGWOpt0FzAdKWAzpOBbWq1SI1PTHq/Lo0adTU3gAc8pLZL/4bY48+9/J+/GzPPeFP+PXn5R80w4FhpD2B0bW45JtldS3o1jdTgnWxO2UeGDMXkhfZSY9hnSkblGX9xbR9F1E098glPoagcOv0lOey6TXQkN5Ib6SLOyaTNJ2PY85/zCtXgPN1hJOtoa40lPDqYSLxYBRJRXnfQZOJWwqzbEcqVQ+/rAll2mnhmO+MlbDJtZiNjYSLi7VerhYK4UcF+ciVk54y1kQ8+PWqgLVRqtPASGEvBAwcqLazmpCvLoEFwcamYo5aDQW0WzV4sxLwVt8lHBpBrHiNNr0uTQWphJKfZ1QymvUZu6hW5vGiDlHcY2kPBYCJSxHyjkZN6q81EKgjCl7Ef2GTOqKDlGV+goFLz9D1ve/ju7FH5D9/e/xmY/9Kh967HEFxiNF1lOuZNfGnLdUqfmSEF+4nDm/jnFHIb0V6XSWpdCuPUyL5jA1OXsIpb5KMOU14pl7GakqYSXmod9hoKY8nxqjBn9pNjXGItodZbSYi1iu87LWHOZsnY+TcSfHQpLNtbPe5OdSR5jlqEnxkGrnsRWpQz7uN6jK2Xq1jYsJB5dqnOq5Fq3ipM/AMbe0vehUal6yqlc6o5xvCrCacHIy7uJsfYALLVHWWqKsNgZZiLuYjTkZ8Znod5XTWplHj7GAsSoNQ4Y8OovTaCk4SHtJCoOVmYxW5SqNmHEXsBgsVSCcqjGriqWkRWZcEvDlqJ4we9qrFL/8HQp++G2sb7yML+Ugf/sHf8Anduzkye1q3QdqxJSrmDmfVuVepEa9Eq1kOVrJYqicSVcxfZUChPjPR5DaRWtJCvV5+2kqPEy3Pptxu3grVmaCVXRbS+lx6Ol3GRgLWphPuDnZGGK9vZr15ijnG0Kcqw+w1iCHFOZyR4y1Rh8LAYNyI8etBUxaC5m1FbPsLuN0wMh6zKZAECBE1qNWZZoEiCWfXtVKRCOudEW51B5V33e9OcRaY4hzDUHON4VZb4lwvjnMWnOIs01BTta6mQ+bmPcaWHTqmbEUM1aZw1BlJsNmCQLzmfEUsxDQcixUxvFYOQLC2XqrEmkxEkdDgGgsScGT/jrFLz6D4eUfEDv0Fu1F+aR845v89lNP86HHHmPnjkeII4QT5v1lKgn3MG1xotrC8nZkLOZJ8k8iI9spi86yDPor85lw6JjzVrIclOymh9UGP6cbA5xrCnG+Ncp6W4z1ligXW+KsN0ZZqw+z3hhmoznMpdYol1ojnK5xIWZq0l7MpK2IaQHCWsQxRymnvJWsR2xcTrjflYvVTk4FKpOpDY9O5ZfO1jvZaA2y0RrmQkuI801BBYJoxbl6v5K1BsnQ+lSG9ly9i9WETbniq8FKTvj0LHm1LPgkfihRT3GHV6WnK2FWqY+1Rruq20uAKkDMebUMG3NpKknFl/EGJT/5NrbXX6QlPZWegjx8hw7z7//Fv+RjO3Y8GhAPgzUBQcqiQqCnaqyciP8cjCkpkLhLmBH+8OlZCFQqUlwMmlkJW1mNOFiNuzhV5+Fsg0SvQS62RLjUVs3ltrgC4kKTaMRDIAScCGv1fmWi5n3lTDk0yu4KEDOWQhZsGk64y1kLWpDDvxx3cUnkPUDMu0o5FhDbbeG8pMDfA4RohNKGZnlKWjyQrCS2S5rcq9L252ptnItXqb6mk9EKjkclKyzRuJaVcDlna6s4L7X6BivvBUKShPNeHSOmPFpKjhDM3EPZS98jsP8NurPT6c7OpLOkhB/9+Rf5l08/xVNPPgJZSxZSeOF4zMjpmqpkbbrBxql6KydqzSxXV7IQ1rMQKmMpKKVEMyeiFlZjVlarbZyqtnOmxslZ8WgavaoWoKp0XQmuddWw1Zlgs72ay61RLooX0yzPMBtNIdbqvJyMWjnmMzDjKGHaJj2nxUpm7SWccOo57zdzJebkSszFZrWLy1Enp/0mlhw6FhxaFjx6VsImztW6uNgU5FJLmI2WEBdbRcJI5fCXycVWHxvNbi7UOzhfU8XZuElpwPFohSJmufXn6m1IYjBZSBLecaiLKpd23iOxVJ5qPItm7qHq9R9Tk36QQU0uPblH6S8ppvhHP+K3ntjJkzsfoR4hpknSF/LNRRukPnBeyoiSlWxyclpUMW5iKWJgOWjkZLSKU9U2ztY41Ydfq3OroowUft5bLt3aBkLAELnaEVeAXGmTYk6EC41Bzta4ORGxsOgzMOfUMmNPgiGAzNpLOe4s43zAwpVqF5txN1cTHvX6bNDCiqucRaeOBXcZx/wVqi5xocHL5daQamS43B7moUgJ9xekPciVVh+XmtxcqLMpMM7VSE3DzIlYJaekk7HBwXqTk/NS0WtwcbrGpkrFUu8QjZAAVToAoxm78e57ida8I8wZtQzkpTNcUox1925+56mnePJRck0SWP0CEM1S/nQrMM41Ot4FQ+rXq3EbpxJ2ztQ6Wav3KJsrIDysjD0EY0uyp901KpV9vbdW5Y02O6sVIJdbBQg/p+N2VkImFr3lvwCEgLLiLFOmSThis8bDZq2XKwk358IW5cIuOrUsurQsespYCVRwNm5XrT2b7dIkkDx89Vrev0/CSBb3irQCNbrZqHewUWtjXZoipAQsHYA1dtbrnFyod6mnvD8jhSdJ44QqmPeWMWopoK0klVjGbqJHXqc9L4UFYykjBVkMFRfi2rOXTz/1NE8/SkA3bpNCj56ViFkdsjrgBve7Sb2HyT3RFAHg9HtAkNKnHLyYIskLbXVXvyvXuhNc76lVInUFAUWSeFudca60RVhv8HA6bkt+KI+0wuvepxGiIStuA+ejdi4LAHU+rtT7uFzrYU2qcn6pRWiZd0g9Qseyr5xTERMX6pzJiLwzzLXuKNe6qrnWGVM9V9J3dbU9onqwrjQHuNzk41K9m43t9sv1uA1xl8/HkiIem4g0ocnPPBMxczJkZMlfzpxHNKKAFk0KNVl7aMjaS3f+YeYqihkuzGKopBjdT57nt3bu5OlH8Zoksp5ySq2hkhOSzEvYOVsn6ijZVR8XpQeoTdILAdYbvIgpkueGgNASVB9KgHgIgrTTiFzvruGGANFdq0zTQxMlQFxuDXO+3qOCsaWggXmP7n0aIdogwBz3VbIWtXGpzstmo5+rTQGuNPg5X+NkNWRm0VXGvEOrTNSKt5xTISNrCZuq3m22BdiSIlNnlOudMdWFKC2hIlfbwmw2S4EpwOV6LxdrnGzEJbVu50LUzvmI7f0SrmItbOZ00IjEN8d8embdWkarCmktSaUudzh16gQAACAASURBVC/tBQfpzTvElD6fgaIshvVa9v393/EvHtVr6quUGnUxs75kH5OAcaZGWmU8bDT7udIa5Gp7mE0hvZYgF5v8SqS7T+yxdPhttm/fvG4BILEtNe8DYUt4ojPOZkey4C+ArsYsqq487ylTicQpWwki0wKEW89xv5GzMTsX671caQqy2RxksynIBQExUsUxj/59QKwKEHEbF+pcyuzI0My19gjXOgSIGFfbBIRtaQ1ztTnEZoOfyzVuLsUdXIw52IjauRC2sR6ysh7elpCFtYCJ0/5KBPBFr44ZVwkjVWKaUmjI20e/9ih9+SmMa3MZKs2nq7SIb37uj/jE44+z41E0on27E3zCJTkgMVHiO1tVHWFD5gok8dYaULIpGiC3Ug6kOcjVlhBXW8JstUS53l7NjY44N5UkuNGZ4Hpngmudca51xRHy3uwQdzaMdF0I2QtRC9EueMuZduiYsJYombSVMucuZ9ln5HTExgUxTU1yg0NsNku92sfpmJUln0FpjmjPkreckyETa3Kg9V71+221htlqE3MUY6u9mq32GFfbq9V7AUT996YgV2t9ygkQj+xixM4FASFYpURenw+YOeev5LSvghWvXqVWphzFjIjXpDlMU/4Bhstz6Ss4wmhxDqPaYqozjvIff+M3+FXVjPwIXlNz6RG6K3JUh5+o23LAgBTl1xJ2NupcXG7wcFU6qKWTuiHAVoOfa41BbjSGuNGUlOtNYa43R7ixLTdbItxojXKjNcb1NpFqrskBtEWVFj0EQjww8cQEiElbCaPmIsarJLArYcZZxjGPgZNBC+cT7iQILRGutkZV0/O5hIMVCezcZcqsLbh1HA9Ucr7GweUmP9ekA1zMUleSl652iKNQrThKLobwxnVpEW0Jq8+1GfdwOfZ+IMRjE1nzGznnN3Dab2DFK7MTpSggTHm0FgkQBxk15NObl8pwQSbDJYV4D+7nT3/91/joowLRUJxKZ7mkuguUSVhWttaE5HQuiBdS6+RqnZurdR6u1fm5XufnZn2AWw1BbjWElNxoCHGjIch1kfokSDebo9xsiXGztVoBIqBca4ux2RbmYnNAcc2ZhIPjYTPzHj1jlkJGTPmMVxVtA6Fj0V2ugFgXjWiW2538HmLnxTxJG80xb7nSillHKce8es7GbVxpCXCzp5rb0vo52MjbA41c76lhSwBQToSYzXiyc709xo3msPps4iJfijrYENMUrGLNb1ZyzlfJWV8SiOO+MubdJUyLRhjzaC44RFPuAUbL8+nOOqxc18HiAnyH9vMffuPX+ZiYpkfpa0pIokuXwWBFHpOWYpacZZzyVXAuZOZCxMqlajtXEy6u1ri5WuPlWq1PgXGjIaAOXzTjekOIaw1BrtWLhLjZFOFWq3Rgx7nRFk9qhZguMVfdcdWs/BAMAWLGqWXEJEAUMl4lEbaWWZe0yVRwJmrnUmOQrdYo18XsdSbUAcoogLirx4NGVayac+kQrjkZsShH4lZvDfeGG3kwJt2C7aoVU7rTb/bXc6NPvLkEN7sT3OqKc0vAaAqxJYBXu5R5Ek046zVyxlPJGY+BM14Dp3yiEXrm3VqmHRpGKvNozjtIQ/Z+Rsry6MlKoT/7KANFeUSPHuEv/tWn+PijAhHO2ktT8RH69NlMGAtZtGo56S7nrL+S9ZCFS1EbmzEHV6sdXIm72Ex42KzxcrXOp2Sr3s/V+iBbjdLuHuZaU9Is3dzmjOudcQXAzd467vRLy3yTGmwUoheekGBuyl7CmKVYgSD8IGZp3l3O8YA5aZaaxcwkuNvXwN3+Rt6Wg+yMvcsVy8IzQtwevTJ1Ep+IE3F7oF6BIN3iMlkkvbEyj3drsDE53SoTTb013OmM87YAXR9QQaNohQAhIJxyGVh16Tkl2imN2WIKXaUqLyZFssbs/TRm7WdUl89AzlH6s44yUJhHfV4Of/fZ3+cTO3aoVPgHZl9DR/bSkJtKd2kmY4Y8Zs1FKn2w6q3gXEC0wqbSCleikmZIphouVzsVKBJoXVGgBLnWIDwRVbdfSFsRdVfSc7rZJ116Ldwfbeed8XY1wLLREuRE1KoOfcKmYcwqZU4N045SZl06BdDJiARWbuXu3upvSHZ+T3Sobu9bvXXKUTifcHAybGTJV84xaTbzSzOxmfP1PuUg3B1rVS38Mpcho173JzvUHN4dGYqUQRoZqOmu5mZbmOtymWp9Koq/KD/bb+S0W88Jp47jLh0rLp1KRs7ZNUyaCxjQZVCfsZfG9LcYLclhOCeTwcwMhgoKaM4v4Ln//J/55I4n2Pn4kx9cGAoc3kNd9mE6NekM67OZMRWwKOkFdzmnfEbOharYiNi59FCijiSpxRwqGXelxsNWQ0iBcKMtaX5udtdyo0cag8U+N6kx3Z9OdPGzyW51M98eauJsnYcFX6XylqbspUhgKUBMOUqUK7vkr2A1YuWcAiKiZrH/x3Q3/0MGVCY6kprVUc0lcWVjZpb95RzzJFPjK8FKzkhBqTXCjf561R2uZu1k3m6yU329aIdo521pXJbBmo4I4mSIVoj5vRxzsB40K25YcWpZksDRplHJSEnTT5jy6demU3v0DWpTdzNYmMlITgYj2ZkMbwPx0n/7Gz6hgHjig4HwHnyDROZB2ovSGCzLYsqYz7xdw5JLp1TxjL+S8yELG+EqNkI2ZT83okkQLiXcXK2XWeYIAoLY71s9dbzdL3PQybEtmRZ9Z6IzOUwy0aGmR6Vf6bhog0uvgJh2ahUIE1bxmDTMOKT6VsbxoImzcafylGQs+GcTnfw/U938TIYch5q5JUDUeVQ1b9GtU+VT8Z6O+aX1x66AuC43fqhJgSG/y32ZZlXDj23cG2nhrgzc99XydleMt9ti3BTzWu/nSsLFeqSKc4FKTrjLWJZ0ik3DvLWYmapCxo259JSmEU/dRSLldfrz0xnJzWI0N5uhwgJaCgr5wV98kY/vfIKdOx5BI1z7dxFL309rkfR4ZjJhzGPOpuGYqKJHnyTugEnxhQQ5KuARAo27uFIrU/1BrrfGuNFVw80e2SpQr0AQW6xAmOzkp9PdyizIUKPYZ6kZLIct7wIx49QpnlBAWIuZFqkqZsYq6YtyNup83O6t553hVt4ZbeOnohEDjVyTYk/Eqqp1qo5hL0aAEHdYsrqX26SPNvn7CFHflYMfaUkOtchMn4wIDzdxV8aPe+Pc7ohzqyWq3NkrNW4uRK2cCxo5IdwjQNhLmLUUMimdKxXZdBanEDr4MrHDr9NXkMFIXjajebkMFhbQmJfP1/7t5/noDqlbP4JGOPe9RiTtLVoKU+kry1RIz4gKSv7GU84JTwWnxUQFLayJmZLoU+oDkogTO9wcUsGcmCP1oWVkSj7we0d5p7vV3NytkRbVvbfW6GcpZGbaWaY0QoCQaHrKpmFS3Fez3Lh8JiryGS/P47jXyFZzhLe7ZQyrjtsD0vVXw6WEhxWXXh3MhDmPaekUkbEzSY+ELVyWubl+GYxvUE/RUnl9Z7RFzWrfH5cpoxbuyxjAQA13umuUVlyX4LHOw4VqG+fCJlZ95YofRCNmZZDHlKeAaCs8jH//S0QP76K3MJ2R/GzGC/MYKCwgevQoX/jUp/iolEofBQjHvtcQwm4uSKVPl8lYZa66kXPil7vKWBFvQcDwm5J8EXO8qw1XGwNcEzvcmUC8IiFUmWm4M9aqZqNlpvqhyLz0QyCkgLMUtqgmginxkhxaJA6Q9Le07IwbCxg15DKiy2ZEm820sZizEUl1+JOBXXuMzaYQZ0NVzIrbW5bJaEU2k5YCpm3FyrStBM1cag1zSzSiv0H9fpL7utaV4O1tMITI7wkow+KJJXh725UVIDbrvCr/tCYNdeIAuMsUP8yYC9RlHTJkqRq3b/8LRFNep684g9GiXCaKC+gvzMfw0kv83kc+wocfk6mhnR/MEe59LxE+spum/EN06zIZkhKopUgdiiTUjrn1rHgMrIoHEbKwHrVzUcxSjYfLkohr2waip5bb/TJM0qx8drHF7yVIMVPKbRxqVFohJdJpm5YJs5ihEmWGpi0ljBkK6Mw/QuLwbhKpb9JZeJTh8nyWvEZOR2X40M0Z4YVqB7OOMpqz9hF4/Ue0ZuxjTJ/LpLGIaYuGk8EqlQ6501/H3YF6bvUk4w9xe2XqVVzgO4MNagJVnrK05ZYEee1htpqlrdO1DYSFU/5ylqWkbC1k2pyv6tsD+kwa8/fj3f8CibTdDJTmMKYtZERbTHN2Ns9/8Yt8/KkneVw44lGBkFaShtyDdGuTQIy/BwjJcC679JzwVrAaNLEWsSVNU42HSw0+NhUQcW79YyC2iVEAeTjTlgSiCSHQ9eYgi94KRivl9uczYchnVJdDYv9rFH7lr8j9uy9he+k5YoffoKPwCBNmDcc8FSz7pX5RwbS1lIHSTBIHXsX9wndI7H2J/vwjjGlzmKks4lzIpuKat6WRub+O23LQKoiTCVMZyE/wdn+tijVuy04P2RfSHeNau+TQfFySWkS1FdGI0zIL4iphVlZkmPKU9vXr0mnK2Yf/rZ+oWGJQn89QWSGD2mLcb+3lP/7m/8WHd+7gsR072fkofU2ut14keHgX9TkH6NJmKI14CMScvVSVIyXaViYqYORsxMqFmENxhABxpVXWPlSrDymuoIxcyTyDDBWKFjwEQXhDhgvfHmnhRn8jGy0RjoetjFUW0q/JYLgkk4GidOJvvYLrheeoOfAGDen7qU7ZTX3GPnpLMxVoY8ZCRirkQ2czWJLBQOFRenNTGCxIY7wkiwltDktVOtbDDq7WBbgmw+6ynuih9CSje5m1kK02D1cN3ewVgCJc7wiw1erlUr2DC9UWzsuODhlhc2mYrspj3JTLsCGL3tI0GjP3ENj7EzoKUhmuLKJfX0hHcT5Hv/kNfvvpp3lSVkE8vkPNXX9gQCemKXB4F7VZ++jQHGXAkMu4uVDVjYW0BYxjDl1SK/yVnA1XqZy9uK6X6pPD7tfEB++p5paaJK1XM3BqYcl7JjwFCJG3R1q5OdDE5fY4ZxNejrmNDOvz6C5Ipbcwjd7Co/QXZTKmL2TSVMpQeQE9JRlKeksz6NNm0q/LYsSQx7A+hz5NOt35qSrzOVaazYJJw2mviY2YeHUBNltCPx/CFzBEK2QEuTemRDbayOvrPbLIJcT1Dj9brW4uN9hZlz0kYQMnZIeTo4gJmaaqzGawPFM1Ldemv6E0oluTzoS5hIGyAhpyMvnBF77AJ57YmVwF8fjOR8s1eVTv5+vUZO6jrSiZ6hgzFSggpq0aZq0lLNq1SSACRs4JEELYCbdKN19sTi7LkpVAcqvkhkn3tpC2aMBDAB5qxq1hAaKZzc5aNhrDnK32sOiqYLA8Vx12nzaLfm0Ow4Yi5hyS5q5g1qFn2prkk0mLxBk6FZEPVebRWnBY5Xs6C1OZMBSw7CzntKSwJYFXH+BKS1ClQ2Q1hZimpDwEQtYYRbjWHVYNzlsdfq51eNhslVS67HMycDqo5ZhLXOp8xmRySoZ4yjNoKz5MNO01/PtfoL8sm1mrnhFdIfGjaXz1336ej8h8xOPb8iilUs+BV1QTrnRFiwsrndGSVRQ3ckr58hrmbaUKiOMBScKZOS/dd9I10eDmkiymaguorTQ3eqrV3iTZo3RzsJ6bQoLiRW3HFLJ/6dZgM9d7G7jaWcPFpjDnqt2KWOecesYtxQwbC+kszaDfkMe4rZRpl1TDylkOmDkesHAiYGEhUKGKWT2GLJqKD9NQeJA2TSojpgJmHTpWAlIgcrBR5+VSoz9Zm2iXrTnVqN+xN871vhjXe2UmPMJWV5DNDml4FhBcXG6yc6HGxNlIOSd8JczZ8xk3ZzNqykImTAfKM2guOEAo5WUCB19SnYLz1nLGdEV4DuznC5/+XZ7eIV3gYpqSezk+0DR5D762DcR+mgtS6CrNYKgilwlLoQIiqRUaFsU8SWddxMjZagvrtXY2GpxcbvJwtdWn9jRd75LbJR8wwbW+BNf6a7gh89Dba4JkRZzknba6a9nsiCeBiLs5GbIy59YzailWg5UyODNoK2bQWkifOY/eihymHDqWhKg9FYxWFanBmi5DBi3aIzRoDtFamsqgSWbENarYJJnZ9RoX6zUeZPpUNEPWGMk0kgxMXuuNqZFiGStOAiF85+ZSk4ML9bJizsjpsJ4lTzFTVQKCjIJlqXGwAX0Gjbn78B94QQV0w/p8pk1l9BXnk/3sc/zuxz7JUwqE5Kz1I6XBvQdeI5jyOonMfTTlH1Y80V8uyOcxIfXsqkKmq4qQRNcxj1btM5J5t7UaK+t1dtWOstnqZas9wLVOmWeQsasoV3uq2ZKtYttACAiSe5Ia9tXtXqeLTSHOxF2KtMedWroqsmkzZNFnK6arKp9OGUSsyqfPlMuYTaPijmFTAR26NPpM2QzbC+kwpNNWnkaLNpV2XRpD5jzmvXJhLKqKdybm4Hyti41Gn1rgIrPdV7vDbCkwIgqM9wJxUbSh3sq5uJHVUBmLrkLGzBmMmDMYt+Qwas6hryyduuy9ePe/SOTgLoZKCxg2aPGnHuDLf/xHfOKJJ3lC9vrJDN3jjz0aR7j3v4L/0GvE0vfSmHeI9uI0essyVF/nmEyBWvKZ2u5HlaHB48FytcXlrHTX1dqSWtHs4mqbj63OIFtdYXXrroorKLv2hhrVlhoFQk8dWx0JVa6UprP1hgAno3aWQhaGHSUkCg/gy3id5sosWs05dJqy6JfRXEcR484Shm1FdJZn0qQ5RI8xi1G3hm5zFq2GNGoK96nZZ+nPnXbJGJcswTKpxKFox3nV9OBW42ZXOgSMiJr925IZwE7ZruPlUquTjWbZU2jlTLySE0HJXxUwakpXs9dqhMucrbrFE5lv4t7/EuHDu2kvyiWSlc4L/+2/8q8++is8rWoQP18n90ibB5xvvYzv4KtEj76pYom24iP06DIYqMhhWLaamQsUX0jEKgOCst1LtnyJVpxLVKnFIpebnGy2edgS10+AEPLr2QZCeGJAJkLrVE/T1dYYW23VXGmNcq7Wq1o2F4ImRp2lNOuOEsrZQ53uCE0VGXSZsugRu+wqZtKno68qn2bdEVrL0pjw6hh2ahhwFNFuzCRe8Ba1Bfvo1Kerov6su0yBsRJKdiVKQ0SyO8XNRquXy51BLsswZmdA8cPlVtm0kwRird7C6eoKVmQ4xZ6ngJi0ZjMlo2DGLLo0qcTTd+Pc9xL2/bso3/0qz37pL/g3v/YJnt6ZbBZ4uOkyuUDrEWrWjr0vJoFIe5P6XCG9NLU2rc+QxWBlLqMm0YpCBYbMMS/5dEorTkWNiFbIqp1L20BcFcLrDHC1K8RWT4zrEiTJuoZeSS3UqLbLy40hrqjWyzCn4i6OSdd4wMiITUNHeSb1JanUa4/Qbsqh25JNtzmDnqpshj0a6nUptFWkKyBGnBr6bYX0OwrpseXTVHaEuqIDNGsO0VuRyaRdoyp2x/yVqknhVFzWHNlVz+tak0uNJMuMtUwhXRJpcXOxVUaWpXnOxGpMVspJ52EuY6Z0kkDkqdHhTvGYjryOefdP2PPVv+LPP/Pb/OZHPsSHnnicHTsf4zGR7dWjjwyEa+/LyjSFj+6mJnc/TZoUOnXp9OmzGKrMZcQs+yjyGbfmM2MvVLvuxDwJEEojhCcaXVxp8bLZJhOhcsNEImpfhpQkr3bGuNIuTcce1e+63iAd2l5OxuzMeg2M2IppN6RTU3yAaMFewoV7abdk016ZRrcpnW5LFu2mDOpk+t+aR5/syPBo6LXm0GvLpc+RT4fxKLWFe2jS7KfPmKHW4k04ClVrpEyzymYdAUKWuFyQufB2L6t1Vs5IvCArg1rcXGh1sd7s4EydtF3KgGQpk/Ycxi0y95etXsuWmjZNCqEju9G99kO+8id/yK899QRPPraDJ2RCSHJL2/PVD7XikfY1Ofa+jPfQ64SPvkk8Zx+NxYfpkB4dfSaDFTmMCFEqIPLUUloZLBfzdDIsLY4WRdgX1cpRD5dbpQnZrT6UbKjZ6qnmSmeE9WY/Z+tdnIzLzienEhlUWYlUMe3R01meQZ3mAA3aQ9RqDxAt2kObOYP6kn10VR6l15JFb1UuvbYCBpxFjLgKGJfpUb+GIWcePdZMOi3pNJUdpFF3gE7jUca9xQzYc5n0lHAsUqHWVKwkLJyst3O+w8+FDh8nai2sxI2ckWbjZhfrrdLzK2NgZk5UG1gKaZmy5yogJuR7OXIZNKbTWnwYf8rr5L34Xf7iDz7NR54QF1WSezJX/fPVQP8kIGx7X8F76A1CaW8Slx2whYfoKP3lQExY85nd3qEhGzAfrhy92OTiUrNbgSBLGGWg43yLlwvtQc41+zhRY2c+VMl8sIITcRvHq6tYiphYCBmZ8urpteTSUn6EDlMmneYsWirS6Lbm0Ko/TK8pg3GPRu34mAkYmPSVMeEuZMpbyGxAw6grj96qdPrt2fTZc2irPEJXVSbziUqmY3qmI2UsxCuZjZUzHdEzU23gZIudc20uTtZZWIjok2A02DjfIishpA2/itVEZRIIh7jyOUzYZTmx7LXKoLnwMJ5Duzj642f4s89+mg89tYPHH8YNv2QL8iNpRNWel/EcFiD2Es96i/q8g7RrjiQ9J+EIi5ilArVkcNKWz4wzuczkeLhCdU7LCtINZWvdnG+ShuXkJP/JOjsn651KlhJWJnxljMm8dtjIbNDAQsTITNDAuFfLgD2fLksmg658dZhdlgz1etSRz7RHw7GwQQ3OiEZJJ6IMk8z5NCwGtUx7i5hw5TPmLqDflk2/PZchdwETYR2T0TIW60ws1hqZjOgYD2uZiOiYq61kqdbIUqKChaie5XgFq/UW1pptXGh1vh8Iey4TVblqGe+ko4CBSsm6HsK+71X2P/t1/t3v/Q4fflqyrKINP/eU/vHrDwzoTHtexnnwDTVZWZ3xFnU5B2gplMBO8k6yyCRPASHD47IvW3jimPc98YR0UTfKDEGya/x4tZHlaAXz0UqmIxUcq7Uxn7Aw6tMyJP1AgTImfVqmAmVMh/SMB3QMe4oZdBcw5CmkV1b02HOZ9pcy7S1RK31OJao4Vyvd2dJC71FNZGeqrZyulo0GZjWsIuNng5ZsRp0FTPg0zEb1zMYrWK63MB8vZyJUykS4lLGghplqPbPVZczFdMzHdCwlDJysN3G2ycp6i0MBcSpRqThCTJN87oeLXPorMlSC1Lr3Fd76ztf5k8/8a37lwx9ix46HW8t+ORgfCIRh94vY9r9GIHU38aN7qc/aT3P+YTpL0hRhD5tyGa8qSG6VsSbBkHhiZZuwzyakV7ZKLaFaiVWyGClnLqhj3K9jxK9lvsaiZDQo70uZCuqY9JcyGdAyFSpjMqhj1Kdh0JnHgD2HSX8JY84CZn3JaaAT4UrWahxsNgW43hphS4o2DUGuNoa43BBUZdSzMYfaiiATRPOeUpYkUZewcLxGxMxyvJLpQClTYS3jQQ2z8TJmo/LzNUz4C1mI6lhtMLPWYldAnKmT9XkGtc1MgJi2F6qVcrLRoM+QTiJrH+Y3X+bwc8/wl//uc/zLT3ySp3Y+xRNqivSfCUTxq89jeesVlYGNp71JXeZ+mvNS6NBIYJf0nKQLT3YtiYkSzZANkLKyQZYRnq6RARcLAsJCpJzpoJaJQAkDriJ6HfmMhZLmYCRQzGiwmPFgIdPhEqYCJUz5NEz5SpnyljLl0ajhSZnVmJVGANmy6TZw0l3JWlCa3ILcqI9xvTbMZjzAxYib9aCDtYCNM14zq+4KjjsNLDn0HPdUsOKTPX3JfYTyu80GtEyHShgPFTEZ1TAd0jDlL2Lck89sqERpxPk2J2vNDk7WmFgK69UqOQniZAWErJSbsuXSo08jnP4m5btfYP+z3+Cv//Tz/NYnBYgnVQT9j03Sw/cfqBFHf/Qshj0v4T74KuHU14mn76U++wCthSl0ayX5ltyzNFYlPJEEQkaBBQiZrFlNGNXI6/G48V0gxnzF9Dvz6LXnKpMz4i9mxFfEkDefiUARi9XlzAa1yGzepKuEKVcp084SZI3QnLTau/TM2LRMGTXMGUtZshpYdZg553Ww5nFwymnhuLWSlSoDx60GVqx6jpm1zJtKmDVqmKosYtJYzKS5mElrMbPupJmb9BUz6itgyJ3DuDef6UAxM0ENcxEtK7UVnG22cbq+iuWogXnRWofsl8pTezlkZdBEVQ7tJYfxpuxC98ZP2P3M1/gvn/8jfuPjH2enbBr43+GIV/7hK5SKeTrwCv7UXUSO7iaR+RYNuQdoL0mjV5/JkBTLLdtbyISwPUKUOlaiBk5UV6gZZAHiWMzAdEjLqLeIPns23VUZDDhyGPUXMxHQMBEsYT6k5VhEVjboVQ/TiLmAYWM+A2XZ9GuzGNHnM1mpYdpUynRFKdOGUmYrylisNLBkMrJiMnHMaGChooz5Ch3zFaXMGTTM6IuY1hcxqS9kVJfHYGkOXYVHacs/TI82PbneQlaHugsY9RYwFShmLlKqOGIxrme5xsDpxipO1VlYiujVugfZli8i29am7AUMV2ZQn78P+4FX0Oz6Ebu+9RW+8MefVTv8dqgFKL/cLIlWfKBGfPuv/gs5r/2Yyn0v4U55lWDa68TS36Q26y2lFT0q7yRACGkLGLlMOQuV5yJaIZOYJ6orWamu5Fh1BVOBUgadufRa0+mzpjPoyGbUU6AOYMyTXCE3YStg0JBFZ/ERWnMP056bQntOCp15afQVZDFcks+UXkDQM6XXMVZawkRJKZOlOma0eqa0WibV3xUxXlLApLaIWX0J8xVaFoxlzBp1jOuLGSjJpbMgjU5pFSrPVv9bhhFHPnPhMpYTFazUVrKcMHAsrmcpUc5qvZnVWjOLobLkdpptIKZlM5o1n15dKtVZb2La9yK5Lz/HS1//W/7d7/4OvyK1aYkhfkkg98im6b/92b/n8E+eBFXCrgAAHIlJREFURfvmj7Effhn/0deTWpG+h6a8g8p7ksBuVAGRdGOFJ2bd4sZqWQ7r1VoE8ZSOxSoURwjxDjkymfTlMeEV1zKfYVsOw7ZchmUVkT6dxqy91KS+QePRt+jOO6oOf0JfwkxFGcdMRo5XVbFisylZrrKxYrFx3OLghMXJ8Sobx6us6t8ct5o5abNwyl7FaYeVU04bxx1VLFZVMmcxMGspY8GhZ8FVrkbUZExZgjh1+xstnKgzKjCW4uWcrDVxPF7JnJglpyyHSbqt0vk9ZsqlvfgAoaO7qNj7Auk/+S4//PJ/5Y9+57f40BNilv43gfiTP/wsL3/rq+S8/Cym/S/iObqbUPqbar1DQ56YJ7lNWWqmWHgiGWXLuFchs94SZaJkWchSpJzlWDkLEZ06/GlfHseiJSyGS5kPaNX2fdlOs6AGPcqYlqEUYzFTFRp1g+eNehbNBpatJk7Yraw6Hay63Jxyeznt9XPG4+esN8A5X4jzviDrvgDnfX7WvF7WPG7OuV2cczs447ZzymXllNvKaa+NVb+FE0EzJ8MWNREre2xl/ejZJjtnm4QTzJyoMbAS13MiLkGckLS0fwoQecpbmrYXMVieQUPBPjxHd6Hb8wIHvv9tvvlfv8Tnf+8zfOzDH2GHWgckUfU/M7L+3U99in/40hdI+dG30O7+EfaUXQQl3ZG5l7rc/bQUpaDMkwR3VcmNlbJMS3YsCVfIIS/IkHhEr4BYqdZzLKplJa7jZK2e1ZpKTtVYOB23qrFg6dQ+JSPCESurISvnws7/t73z/o7yOvO417FjJ7sbFyxB4uwaGzeMYydeiA02jnGhBRASRb333ntvqI2kkUaaUZmiMpJQpxjsJM7aCbgBjjFgwIjuZE/+gOTkh5yTz57nzow0EoNpSsielc6553017/ve8nxvfZ57vw9nu9uZsLRxxmTgtFHPaaOBU51tnGxr53R7J2eMZiaMZs6aLJw3d3HB1MVFUxcXjGbOdxpVOGfs4KyxjQmTzKJambDoOdtt4ExPK6d6dcjBFjmLrY4lj9qOL8tKemK8lZNDDUi+TwzYBmkp24cGWxmFq+RDXSnvVGWyszhOcb0Wh/vgvWolP170GP/p5s6/3SvrCLtF7maB+IH7Q7z84yXEbPk5RWHbaUwKwZQVTV9uHIOi8ihJUfRAwlIpJO6KVEvGCkMJkslDssoVu25fHV8MaDg2qOHL4Xq+GmvkzLiWiXHdpMsDOTcnRhoRypl+AzL/Vxa0IdnMZVbh4oCZi/0WzvaaOGPsZMJo5JzZxHmLhQtd3Vzq7uFyVzdfW7q5bLFw2WLmstnEBUsnZ7vaONNl4ExXKxM9skvPwESfXqUnVjo5qSR5EGLec3KOfLcDCC3HBzRqkJap6oeGYkWIorong5B9FbJH6EXzo2lOCyE3eCurlz7Po+5u3H/vd/i2bL0Xi5wC4SZbxAK3ecpRkecbK0kP8KIqxo+21DB6smPYmR/PaEmyOkssanGhqxb3NzYwihD+1E9MFRzqquJ31lqO9tdxdKCW40MaTo82MLFLy7nxFrXqPi+1cNTIxREzF+SI7lCHAuWC/DZm5vKYhctjXVwa7ebyaA8Xhru4MGDhUn8XXw/28PshK78ftPKHoT7+Z6CPP/Rb+drazeUeMxe7jZzrbudMt54zPXq+6m3lK2srZwbk3LSclTby9S6LOg2rWsVIOxOiExvTc2ZUWoSWz3tFXVLBAUMRBw3Fir1MWMze1+UrbwLjlel0FcZQneBPqr8Hy595nAUP3Md37pZt9w6nHQ4wrpw9XXPWNN9tHj9c4M7y55YQ5bWewhAvmuIDsGRE0JcXy0hxErsr0lRmhDZUuiVhNhN+u4PSh3aWK4YvmZZKYY7KnHygllMj9bYWMaazOQIZaVe1UbZNXhq1cHHUhLBNnhdu8V0mLglXxp4eLu2WIAce5fRoN1+P9fK1EKmMdnNh2KLCxcEeLvR3ca7PxDmrkbO9HXzVa+C0ANCn54zQUtjtDxfETDpmUkBIRZCuUfRVNopqnZ1VQWMDQS/csAUcEBuEQSjyivhVQzZvV2cyUplGR14UZbG+RG9dzwtPLOTB7/0rd39LDqLMAhDubvNY4ObGkkWP4bvmdXIDPamJ3IYhOZienBiGihMZL0tmX3WmaqLCqSRTWQHig+Z8GxjGcj41V3DIUsmR7ko+t1ZxYmedAuOkjBHKOZQw07dxUfaUjpoRugahohZbwHnhxLDzhwuHky10cX58epgYMXFm2MjEoIWv+oyc7uuwEbJYDcihllN9LXw1IOnoFV2D+LsQIKRFSJDWIBwiwici7DtCxPuFtYEjXdUcaCvmveY8fq3L5zeGYhXebylgf106IxUpynLYmh1ORUIAIZvfYunix3nwPgetqKMF3EqLeOhBFsybz2Pff4RNK1eS4e+pfK3Vxvtjyo/FWpzIQGE8u8pTeEeTzX/rhC6oRDGOCd/fB035qub8tl1WrGX8VtkJqvisV8PR/kabLaDPzrA/6e6gU/meELcH4oPiwngHF3bJvXBeCAO/dB1ioGlDSHNPD7dxfKeeo3IKdUDPCSHP6m/lS2uL2vUtXH7CuCnU2KfEz4XMioQWdViA7+TSiJFLo0bVFQqPiJCoyAF/2ZZzuKueg507eFebz766DH6tzeW30jL0xcoOsrsmFWtlDK25IdSnhpMe4M2rP/kRD7vP4x5xdTY5SDvAcH29Ztfk5jYP94fm8x/zH+aNZf9Fiu9msvw3UB65HV1aGJ1ZkbSnBbOzKJ7dVWm825DD++Ior7nQRtRbn8uvhCO2tYhf2q1lB0V1YapSNoTPuus4KozFwvlq1Sq2AYdrHPFBIeHcqASDYoMRPiQx1Agx7omBJk4MNHNySJiVmznS3cDn/TqlSj8mnFIDLer3z62iXrEZf04Le7/EOdKuODTkzPWlUZOtRQhjQX8rx3q0igHzkKmWj4022/e+hlzGK1N4V2isdYXKVv5OQw7D5Yn0lEajSw+iLMqP0PWreXbhI3z3nrsV/7crD1uORZzz9ZpAPOjuxkNu7nzffT4vPfs0Cd4byfb3IMd3IyXBnjTG+9MY50NPvrjSTGVvTSa/kt1uTUUIw/47tdnsq8lgn9iStdn8QhZuHeWKqP1wdx2HxXGScMJ21yvuWGF2+VKYcIQnaWjKVY5ocCUodwLi00E4kbpqOCwa3B4NR3rq+bRLo2wYn/RqONzfyJGBRg71NfCptZ7f9TdyXJxyDLcoB4YTQ61ql4kQm6gw2qEO8Uu6wqL/qbGK3xpK+bWuSFn/dmsyGa1MVl4Y36nPRkAYq0zGlB2CKTeM+vgAsrZ5EPD66zy38FH+VZw6yW4NtYHM9UzphoBwc1vA/PnzeXrRY6xdvowkbw/yA7eQ472RXJ8NlIdsoTbaG2N2FIOlyYo6bV9dDr9sFPbkAvbVZjNemcpoVTojtRns1ebxnjDki35GPBz2yLRQaKFFv1+PcG9IEEDEjZoIRrheT0nN79eimOv7GpR7gY+MFYhK4kOj7OKo5rC1gYNmUWVX84m1Tl3VvbBP7tQq06doTk8NCnV2C+eH5TCknnOq1QmbTrvqtsTQ9HHnDlWhdlenM7wjGWtJLNbCGEYrUthVlc5oZSrm7HCaE7xpTQ+lNHgrEateI+SNNWxa/jMWPuTOvXd+y676tgNxKyqOh91/yE+eeZbALZ5khgVREOJPaagfeb6eZG5dT46AEbYVXWoolrwYBkoSFaHg3pps9tXl8XZNDqMVqfSXJtBXnsSu+hz2NeXznq6Ig2JW7a1XjGhiuBc+KDHiK2pqu0Hf5tNOXOaI5xYBrF75dThkErtECb+R6aSxnA/NO/i4u5b328v4jbGMDy2VHDBXcFBU6eJuQHZdyF6knVob/56wj40IlYXdo6RiIjOobk+6vE9MtezX5Crhm3Mj0KcHok8JoL8wjsHSRLVmkP/ror2ojvcjw9sDv+Uv473sVfxfXctrS17A7bv/zrfVpgHbtspb0jU9/+TTRHn70FJYQGNqMiVB/lRFBFEStJ3s7RvI2LKWwsDN1MUF0JIcSEdmGL0Fktlkxqsy2FWdpe5NOZF0FcaysyKFsZpMfiFevNoq+KyngVMyeI62K1IuqZUifOmexOWBw7mgACFq9ePWhknHGh8bKzjQUcpBo0wCyvjv9lLe1eXzQXuJ2hwgRiSxxomi8YgwrFntfvPsAFwYa+P8uDDt2CyIZ2UCMGpQRqND5joFhCzSBAhDRjC6JD968mPoL47HlBNOc5I/1dFbqYjzJ9ZjDVuXvcjap55nywsv47XsFZY+sogH7/kOd0n3ZN/V59wdOd9fc4wI9diINi2dlvgEqgMCqQ4OpCE2jJoofwr8PEjzXE3mtnUUB3tRE7VNZc6YE4kpN5LBylSGKlPpLojFkB6MJS9aTfOGd6TzjjgFaavkiAzSO1sVGDKbcbSMSf5A4RAcbFEbEYQ9zMEgdqxXo8aIT0yyQaCM9w1FyiYtCsWPxRQqGtKuaj4WdmJho7Q2KHAd/vFkNib+KC7K7gyZIu+yzcS+HGrh8z4tH5tqeLcxn4HSRPpLkzDmRqFLCcCcF0lXXgStKX40JPhSGeNDeXwQ23/2EiufeJyVCx/HZ+kKktduInb1z1n6yKP8m5DtOu1jcgbAcX9NICoCQ9nhE0jVVl9qffzQhAShS4igKTGM8tBtZHitJmnjKjK3raU8xJOGOD86siPRpQTSXRSngik3ivbMMOQqobc4gbGaLH6hK+FjS53awfGF+HgbkG0qOk6J7zeZKY13cHbMxpU3MSKzJgnidFA2CTRxzCpjRR2fmHZwQPQ/qoWUcchSzefCvWqu5oi4qLE2cHJQXBPoVe2/IOuSPUYuy/aevba1iniXlEXc532NHOrWcKCziv2N+fSVJNBTFI9wt+ozQxUQHRlB1EVtpj7Bh8pYP1ICNvPyksd5ZoE7yx5+hLCVb1DtF0p9aDQhq95k4QP3822HB5WrjBPXBKLa05eydZ7s2LSFOl8BIpDWxAj0qZHUxwZQFLCJtM2vk+b5BkUBG6mJ8kGfEYE2KZCm5EB0qcEYMsNUaMsMQ58RqoDqL0tmf1MRB4QZs6eBY/1NfKHGAOnDW7kgtXWvmYvisWuXUa2wxc2BBGFLk9YjQbovGeSFnflIVx0fdVZy2FzD0R6hnRYfQRKfeI4U/j2p/VMgiN+iy28blVdJmQTINPpIj4aPjFW811rKLk226k4FhOb0YAzZ4RhzI9Gn+lMWtI6i4I2URnoTsulNnn/shyxyd+PZBT8g8OXX0ASE0R6dQLlvAKuefIr775bprH3jsQtL3TWBaPIJpsbTh0rPbdQF+KMJC0QbG0xbWiT6lHBqo33I81lHqscqcravpyTISykGG5OCqYzYRk2MN60ZYbRlR2LIiqAlPRS9MCUXJbBH/E8Yq/nMquXYTuEH16q1hHB5i+ct2YSmPLKIXzghZxRiLvGYNW5T0F3aZUZ0UbJvVeirhe7ud7KWEBYxSwNfdDVwsl98pko3JGxr4t1LCL9MNo+RwmS5t1OpWJSLsx6NWtt8YChltyaLgcpkrOVJtOVFUp8SoDi+W9JD0Cb6UBSwlvyA9eyIDyJkw1ss+c+HeXTBfJ78/vfxXPYSpdt8aI+OxRAVS9yba1h03wP2VuF6KntNIMyxSdQHhFDp50u5nzdZm9dREbSFjoxIOjMj0SUHsyPMi0zP18ncspYC/83UxAZQE+NPUZAHZaFeNKUE05oRTnNqCJp4P+oT/GjLCmdnZSrvCfO++JcQduW+RtU1SY13uEBT190WRR0kQAhZijDXSJAzDRKELU0Y1b4aauOEVcfxbq2iKJWrqDQErMvKW4pRrdTFka0DDNlKKd2StAjxAiZT6vd0hQyUJ9KZF4EhO4yG1ACqE3yoS/SnNs6b6khPigPXURm9HU1aJKHr3uIJd3d+8OADPOLmxps/eo7crVtoi42iPz2D5sgY3lr8LPff4/BlfSUY1wSiIyaOtphYyr23k+2xgbBXXiLLcy3t6RFYsiIxZ4TRmhRAaeAmcratozBgM5UR3tTF+VMV5c2OqO00pQYrovL6pAAkNCQH0pIZxkBVGnsa5bxDGR+JGzKrlpPDrZyRWcweo3IgKF3TxT3CktmjlH5fi+JvvItLYxYujVu4JOS54xa1Z1boSYXa4YTw+QmbWI8M7rLL28jZUSMTIx0Iy7FNkSgDtXR5bXwpzqikW7KrM/bUZmPOjaQlLYjG5EAaU0KpiQ+iIsZHuTMrDtxAVZiXmrLrc6IJXf86i+Y9wPzv/Ts/uP8+Xlz0GOlemzGlxrO3JJ9dJUVkbtnCwgfn8a077+KOOyTYnHjYNiFfh816Z1Y2LRERCoikNW/iseRJkn6+ivaMSHpyounOjsCUGU5TQgBlQZ4U+G6kPMSLmhhf6hMCqY3zozbeF21qME1pITSnh6prfZI/zWlBmPKj2a3J4VfitcssqvImjgm3qjihFaccu8TrldCWirJPCBwtnB8xcV5U5cOiqLMFAUGITiSc7G3hqEXL8V6hP5Vuq91+tdGgnhluU+OLzMYUfbSllk9NVTZ1RluFOofRJl1QskxPt1MT60dZ+HaKQj3J819HWfBGdIkBGHOiMRXEk7B1Pc/9xwIem+/GY/PdWfroQqLXrcaULucOC/ll7Q46sjN56cknufcucWnjAGLKnfI1W4Q+IprWqBhKtm8n8KWfsvapx4ld+xqtqeH05MVglSlpThSdGeE0xvlTFriJyhAvqiK9FRhSiIrIbdTFS2sIojrGRwVtShCaeB8MmaEMV6XztlZaRikHxR2CuYbDvY18OWzgpCj2RtoUk/LZMSMTwyLsdqWp/WpnO6cH2pCr417+P23Vc6y7mRNWcWgrdNhtimTleH8Lp4YMaqp8QhaOfY3KyccBQxm/MZTyvqGcfY35dBXE0JoRQkOiH2WhHpSGbqY4RMJGSkM20BjnjTkznN7CeLoL48gP2cobzy9m2eKneOHJJ3jpiScIfv01mmMj2F1SwGBuFq1JiWxatpR593yHu+8QG/bUrnBpFdcEos43kIbgMJLXrGHb0hdY/6NniF63iiY55JgXR78scPJj6MqNwpAchEY8kQRvojTQg/KwLZSHb6MkxIuysC1URm5X1+LgzTSnhqoB3FwYx0BFCnu1BSrsby7kF+IexljF5wM6vhho4ZgQ2w6KAEWoMlMSxmE9J/v0nOht4VS/YVo43adHDqAc65ENZHoVxInHiYFWvhzUc2JnC8fVLE20qzV80FrML5sLeFdXqM5YGPMiVWutS/BBk+BDRfhmCgPWUxayifrYbZikWy2IY7g0md7COMrCvdmw9Ee88twzvLjkGZY//RQ+r66k1M8HfUwkHfFR1IYEErv6LRZ97z6++y93cpeyYTuObl0HEMUbvSjy3ELs62/ivfxF1jy3mNDVr9KYFEZ3XiwDBdEMFcUxUBhHd1YErQl+7AjZRKHfeooCPSgI2ky+/yaKgjwpDd2qHG7LVcaQrqIkzIXx9JQmM1KbzWBNBrvqc9kreqrWMj7qFoVdE5/16TgmdoJ+PcfFLYE44pBabm1VAhdAvrS2KmDk/pTVDoS0ij5xryYGnjZOyMxKNLJiZxho4khPHQc7y+1b+ovYrytgTJNJW244TenB1CZ4o5FFW4QnFaGbqI32oj09kMGiOHaVJ6vQXxRLXYw/W5f/hFeWPMlPFz/N8sWL2fzii2Rt9qQmwA9zUjymlATqI8P52aOLeOjOu/i2TGHt09lrHmb885//TPqq1WSsWUfSunUEvraSVx5fSNCbK9Emh9NbEM9wcTxjciyqOIGhwliMaSE0RG+nLGgT+f4byAvwoCDAQwFQGelDRYQ3ZWHbKAv2RBPriy4tFGNBDB350RgLYxnRZLO7IY/9OjnXUMavxV1BVz2/E9dkfS0cFaLbIRl0TUr4jhbhAEP+P9kj7JjNKsg4cbS7ieNiZ9ipV4vHw90aNUOT7Zzv6wvZU5fB3oYsBnekMLAjBV1GEE2ZIWjTg9Ak+tCY6Etjgg/6tED6i2LYUyl2+gzeFs1BcSyaKB82Pv8UKxc/wUtLFvOzH/8Yj5++SOLqddQGB2FKjmcwN1MxW4aveoMf3nMv9zhUHuow450cOHCAS5cuITJ3/N3huPnLX/7CH//4R44dO6ZelH5sLsy+DAQEkbHIWmTu+JsE4q9//St/+tOf1AuC1rlz5+bC30EGIlsBQWQtMnf8TQLxt7/9TT0QlKTJyItzYfZlILIVGQsIInPH3yQQjh/mrrdHAnNA3B65X5HqHBBXiOT2/DAHxO2R+xWpzgFxhUhuzw83DsT+KKejq1Hsv5l8T4vDaRNW1H4mtCuc4p96FqUSmkC7Qn5bgXbCVcL7iZJV7AotLh+rT2YjDldpf9Nv9nwpI5HrvN8YECLAbyzk1TJjK7xNmC7eUcBcBdQJLSvucDyzxbNixQpWuEBiEsRvzONsxOGiDFf9yZ6eI79XKesNACERukbzqnmYfGDLjGsgbLXF9TPYH3UHU8/s8WidwXEkYs+f9lqVZTbicKR5HddpFUnedy2L6wdCIlyhRRs11V1Mr5XOzU/ecdTiGb/PqK2qFs/4bbJ4V7TAqUIIQNPSd7zruE5GMvPmRuNwvG8vx2ReZ5Rrsrwz0pP8TNUk9fCKvAPXD4REeIdT7VRIO1qILVNXCGYyc47CzMjktDhmPHNZc5ziUflxgD3j90lhzYxT/p/xrqs8TgPT9v5UxZI4rlXeqXRVRbt5IJzRtgt7WuZsCU0i6+LZtAI7F34yj7YCTgNv8pnI62rdj6MyOH3vnL7zvV1gtv1EjkrjBIQ9XyoPzt8537vK+7Tnjkw7x+v4TTCb7RZh75qcZyPXBsJV4W2ZtA2sjhrtlHH77WTc0x7NKKxdINJdTgLqUkjOkdxoHDPel6hcpiHvOcrrlN4V77qI74a6JufaI+lM61au0lQnu4iZidven9FinXNPlMspqut4pnUbVxTcKVp1e6NxzHxfIrlGeafJZsb3V8nf9Y8RqhDOXZaji3AUdPqzacJRuNnXBzMGfMc2RHV1IOOyW5J0ZhTKEa/jOyWj65w1OS2ArujHpwnryjRtJf6G8k4DwlFpHZMc173ADQLhEPrcdbYlMAfEbEv0JuObA+ImBTfbn80BMdsSvcn45oC4ScHN9mdzQMy2RG8yvjkgblJws/3ZHBCzLdGbjO82A+G8KJqpHnB+5noRdJNl/qf87DYCYVuxTtMRTdOETglf9E4zVcn/lNK8hUzdPiCuUGNcTZVwNSXbLZT6n/DT2weE6HOcdURK3k5aVCdhudbEygsO8Jy7MWcdmPy+Aq1Y7eyHCidboIrf+Tv7e5OKSqcM/ANubxsQVyjaZgKhWoxNUTYDLyex2ICYpmAUgCe7OLugHRFMU8bZnjkeOUC9OZu8U5Zu8va2AXG9BhMplxojXNZUR4twLr3zb/YWMWlEkWf2ScE0Dav9e1e/OUf9d7y/vUBME66zAGeWeKZAHc9dfeP828zv5oBwSM7p6iywGQOydCFTfYZtr5MDtGndiy0O57FmuuXvG4CwG3emkrHH5UjHKaf/iNvb1yKkdE7jwFS/biu2TaAujCkugIiKmhqMp8fzTUDMTP//6WA9O7VsRqu61Uj/X44Rtyo09f2tACHfTi0aXdqhZyWP1xfJ7e2ari+P3/DWrQAxs2tyvYb5hsRn9dH/cSBmVRa3NbI5IG6r+KcS/1+5Ty/tI3KxGgAAAABJRU5ErkJggg==;" vertex="1" parent="1">
          <mxGeometry x="390" y="121.5" width="69.57" height="93" as="geometry" />
        </mxCell>
        <mxCell id="61mjYRbphMOwMdPB8GLv-22" value="" style="edgeStyle=orthogonalEdgeStyle;rounded=0;orthogonalLoop=1;jettySize=auto;html=1;" edge="1" parent="1" source="61mjYRbphMOwMdPB8GLv-4" target="61mjYRbphMOwMdPB8GLv-21">
          <mxGeometry relative="1" as="geometry" />
        </mxCell>
        <mxCell id="61mjYRbphMOwMdPB8GLv-4" value="" style="shape=image;verticalLabelPosition=bottom;labelBackgroundColor=#ffffff;verticalAlign=top;aspect=fixed;imageAspect=0;image=data:image/png,iVBORw0KGgoAAAANSUhEUgAAAGUAAACHCAYAAAAP8JdGAAAIuUlEQVR4Ae2dz4scRRTH5++aswdBlGAC4s1TH3IULx6UaFSMFwcD0SBCQMSDkFMcEEWNeDJBko0m0QV3kzUJ+IudNdmo071PXnW/N69qXvdsz4+u2s1r6O3qqupXr76fqtfd1QPbO3sVwPa0NOiBbckp4EHZ3t6Gra0tuH37tu0daoCaj0YjHhweFCzc29vjQkt0o0BRFLC5ucmNeVBwhtgWR4GNjQ1u2KCwFHETBiWu/mrrBkWVJW6mQYmrv9q6QVFliZtpUOLqr7ZuUFRZ4mYalLj6q60bFFWWuJkGJa7+ausGRZUlbqZBiau/2rpBUWWJm2lQ4uqvtm5QVFniZhqUuPqrrRsUVZa4mQYlrv5q6wZFlSVupkGJq7/aukFRZYmbmRSU3VOPQYy92LoWl0LQenJQYG8P9oq8o72Afy+fh93TRyElMMlBQSDF+L/OdoRS3PwGdk8fg+LXH4IxG+fUoFw+D7D9G+QJgTEoFZQSzMVyxtz5Mc4UqVo1KAKKA3Pj6/IeExGMQQmgeGDu3ogyYwyKAoXBvHMUirs3OwdzeKHs/g35z5cgv/gx5J+8CeP3n4fx28/B+I1jMH79aX66w6cvhKDt+fUvYRfB3PupUzCHC8o/DyC/8jnkH77kxM8/eAHy4XuQf/8ZFL9cgeKPO1A82IHxy497UBBM044vtF1uhwPKzp+Qf3EOxm89C/lHJyBf+wqK3R0WPnzvkVDCsvAc35sMyhwvjxiO8k/fheKve7UgpNgGpcW8xxE5zxu9KnLTPUWELwlLS9tMWRTKHPcUDYTMMygLQLF7SouQ1KbqIuHL7iltlG5RdxEoMuTMSqv3oJqVaQtfC4SvWSBkuUGxmdJCgbLqoXh5bDPycca0qW/ha9nha2MN8nMvwvi1I27HdLF5zaC0mbvLvNHjYuT41DOQf3cBitHvbsc05tlMaUFlmVDGZ45Dfv3bqWUXzBufeGIqXz4IyLSFr1nhq0U4Gr/6FBQP70+L//A+jF95cjrfHon16dM0U9qGo8aZcua4QdERTOc2QWkUWQlHDPHSBSgejNyeXyrvKVgmQ1RT2sJXQ/iaKxxRuDt5BMYnj7gnsWJjbd9AEJZBaYLSdONuEY6aZoVWZlAaoCwrHGnCN+UZlAYoTrglhKMmAFqZQZkFpeaxVRNzWXkGxaC4R9JDsSC5rFmh2bGZYjMlzZmCL5Ap7tOvuqvLSS58pQgEfepyMyj7nJkGRREKRQln0X7ywjrhOdmsy5flWKeL7cDMFBSDBMIjndORyuQ5pekor6P6dJR1KE8esbyr7cBAQYFwI6EoTcewXJ7LOjI/tEXn2hFtdLUZlAC2BgTzutwOJBQUSIpH53QkEbU6lEd16Uj5dUes19V2qKGEIkrBsQzP6SjLtHRoa5XnBwpKk4hSXJmWAof54bmsG6axblebQVEev0MgeN7lduCgaIJ1kWdQ9jl6u4BBbRgUg8JjwP5RGksRN5HUPSWuFOm0blDSYcGeGBSWIp2EQUmHBXtiUFiKdBIGJR0W7IlBYSnSSRiUdFiwJwaFpUgnYVDSYcGeGBSWIp2EQUmHBXtiUFiKdBIGJR0W7IlBYSnSSRiUdFiwJwaFpUgnYVDSYcGeGBSWIp2EQUmHBXtiUFiKdBK1ULa2tqAoinQ8fUQ8yfMcbt26xb31fmI0Go1cIVKzvTsNEMjOzo4OhXMtEVUBb6ZE9cQaZwUMCkuRTsKgpMOCPZkfyjCDXq9X7RkM2WSLhGeDbPWglw1hfdAX9idlmWtoHQZ9zOvDYF1rbwgZ+tYfgFrsLlmGDa3tprzKL6dbne8A80FBMRs7XOdYKUQprFLHQaoBvD6Afo/KSjv9fh/6ChUG2ujjMmwofajNqtojfxv6OgcUNF5PudYnV1A6pkMpR5FeBjDMejApq+wMJChqufJvMGvgLMMGtbmPozeosH69Fu2hoPH+AAbZJKT4o1VOUaxDozvID0axG91BHnd1amZOOoSwvPapLh3ZSJhoa4PqV/1gX4N+cX+D9tCfyahyhVO+V5e0h4LGe2LUuhFAM6d0cEokdpQ6Fjjs2QjK1BEl7Dh/CHyQz8KFNvE8qKv56IEt608GGdqY1d9Ju27QLQeKHAWV8J6jZaNMXCnzOi+FYH/LznoguQy1qwtRNDDE9bJ9ma7EKx9MaAAJKJVfzgd5nUxrvnvl5LS0S3nIb5UzpQpf8qlmNhRNiNLh8qZMI110okqyba8o6HglDoZUhqsKJo20tRHUR1NqG1iP+ivam6qr2Kuqtw9fclShES/01ExnDiOhI2X9YFbLnkCmPvbqdrzQMiWCMOuSbW2E9dHIjP562gTXN/g3B5SJM/Se4osqQ5680ZeiyMdV+bBAttyRDKqhC+0EHXRjo+/fSBs6XXni3nWoKWcV341khmdjus3STkN/PSg0gOkBqT46zAmldMf+rkYBg7IaXReyalAWkm81FxuU1ei6kFWDspB8q7nYoKxG14WsGpSF5FvNxQZlNbouZDURKPIFLFyikGX1L1wLqZDYxQlAKd+UvTUrb8V2AgLXwbw37sTEXJY78aFMLaXULWfULQAuS4p07MSHgutLcr3JaS9We4VW+opx+VWSZ1q1SMgm5fqVGwC09qQs/VdtNX5wE/6sKhkdysyPP0JIFjpQw7MxzEB+u5+AXIdBJn5IgbAoTEpwymJn0NzKT6NDafPxx91T+DOA0EaEwGGGDwpDyFw9DIX+gwOvUrtflND9Ch8mqnrClmih02QaUDyhG+4pLjT5IpdqkfgBjGH5ewL3Qa6acRzmAvFpRiE0rtMpiklj8aGE4UKGEhROxCw3ygmgE3UCyInZn3wPoXMWWNql7y8UvlAPtNfPIAtm1kSq7lIJQGn++ONAaD/6C6CUX0Dp5k02J9Dowxh9TOtnmfgdmaNS/sBPDILuMPgtpQHF9+mRPzMoCQ4Bg2JQElQgQZdsphiUBBVI0KXe2asAtqelwf9i8jbuaQo7wAAAAABJRU5ErkJggg==;" vertex="1" parent="1">
          <mxGeometry x="208.85" y="256.5" width="82.3" height="110" as="geometry" />
        </mxCell>
        <mxCell id="61mjYRbphMOwMdPB8GLv-24" value="" style="edgeStyle=orthogonalEdgeStyle;rounded=0;orthogonalLoop=1;jettySize=auto;html=1;" edge="1" parent="1" source="61mjYRbphMOwMdPB8GLv-5" target="61mjYRbphMOwMdPB8GLv-23">
          <mxGeometry relative="1" as="geometry" />
        </mxCell>
        <mxCell id="61mjYRbphMOwMdPB8GLv-5" value="&lt;div&gt;&amp;nbsp;I&#39;m&amp;nbsp;sorry,&amp;nbsp;there&amp;nbsp;you&amp;nbsp;go.&amp;nbsp;&lt;/div&gt;&lt;div&gt;It&#39;s&amp;nbsp;like&amp;nbsp;a&amp;nbsp;little&amp;nbsp;dot,&amp;nbsp;&lt;/div&gt;&lt;div&gt;and&amp;nbsp;he&amp;nbsp;said,&amp;nbsp;you&amp;nbsp;know,&amp;nbsp;&lt;/div&gt;&lt;div&gt;sometimes&amp;nbsp;you&amp;nbsp;get&amp;nbsp;six&amp;nbsp;of&amp;nbsp;them.&amp;nbsp;&lt;/div&gt;&lt;div&gt;It&#39;s&amp;nbsp;very&amp;nbsp;strange,&amp;nbsp;but-&lt;br&gt;&lt;/div&gt;" style="rounded=0;whiteSpace=wrap;html=1;" vertex="1" parent="1">
          <mxGeometry x="160" y="430" width="180" height="100" as="geometry" />
        </mxCell>
        <mxCell id="61mjYRbphMOwMdPB8GLv-9" value="random select" style="text;html=1;strokeColor=none;fillColor=none;align=center;verticalAlign=middle;whiteSpace=wrap;rounded=0;" vertex="1" parent="1">
          <mxGeometry x="90" y="150" width="90" height="20" as="geometry" />
        </mxCell>
        <mxCell id="61mjYRbphMOwMdPB8GLv-11" value="dlib&amp;nbsp;&lt;br&gt;Face Detection" style="text;html=1;strokeColor=none;fillColor=none;align=center;verticalAlign=middle;whiteSpace=wrap;rounded=0;fontStyle=1" vertex="1" parent="1">
          <mxGeometry x="290" y="150" width="80" height="20" as="geometry" />
        </mxCell>
        <mxCell id="61mjYRbphMOwMdPB8GLv-14" value="ffmpeg" style="text;html=1;strokeColor=none;fillColor=none;align=center;verticalAlign=middle;whiteSpace=wrap;rounded=0;" vertex="1" parent="1">
          <mxGeometry x="140" y="290" width="40" height="20" as="geometry" />
        </mxCell>
        <mxCell id="61mjYRbphMOwMdPB8GLv-17" value="&lt;span style=&quot;background-color: rgb(255 , 255 , 255)&quot;&gt;1×&lt;/span&gt;512&amp;nbsp;" style="rounded=0;whiteSpace=wrap;html=1;" vertex="1" parent="1">
          <mxGeometry x="580" y="149" width="100" height="38" as="geometry" />
        </mxCell>
        <mxCell id="61mjYRbphMOwMdPB8GLv-19" value="&lt;br&gt;VGG&lt;br&gt;&amp;nbsp;Pre-trained&amp;nbsp;" style="text;html=1;strokeColor=none;fillColor=none;align=center;verticalAlign=middle;whiteSpace=wrap;rounded=0;fontStyle=1" vertex="1" parent="1">
          <mxGeometry x="470" y="135" width="90" height="20" as="geometry" />
        </mxCell>
        <mxCell id="61mjYRbphMOwMdPB8GLv-21" value="&lt;br&gt;&lt;div&gt;1×283&lt;/div&gt;" style="whiteSpace=wrap;html=1;verticalAlign=top;labelBackgroundColor=#ffffff;" vertex="1" parent="1">
          <mxGeometry x="389.99999999999994" y="281.5" width="120" height="60" as="geometry" />
        </mxCell>
        <mxCell id="61mjYRbphMOwMdPB8GLv-23" value="&lt;span style=&quot;background-color: rgb(255 , 255 , 255)&quot;&gt;1×&lt;/span&gt;768" style="whiteSpace=wrap;html=1;rounded=0;" vertex="1" parent="1">
          <mxGeometry x="450" y="450" width="120" height="60" as="geometry" />
        </mxCell>
        <mxCell id="61mjYRbphMOwMdPB8GLv-25" value="&lt;span style=&quot;font-family: &amp;#34;微软雅黑&amp;#34; ; font-size: 10pt ; font-weight: 600 ; color: #454545&quot;&gt;librosa&lt;/span&gt;" style="text;html=1;strokeColor=none;fillColor=none;align=center;verticalAlign=middle;whiteSpace=wrap;rounded=0;" vertex="1" parent="1">
          <mxGeometry x="310" y="290" width="40" height="20" as="geometry" />
        </mxCell>
        <mxCell id="61mjYRbphMOwMdPB8GLv-27" value="BERT-Base" style="text;html=1;strokeColor=none;fillColor=none;align=center;verticalAlign=middle;whiteSpace=wrap;rounded=0;fontStyle=1" vertex="1" parent="1">
          <mxGeometry x="360" y="460" width="70" height="20" as="geometry" />
        </mxCell>
        <mxCell id="61mjYRbphMOwMdPB8GLv-28" value="V&lt;sub&gt;a&lt;/sub&gt;" style="rounded=0;whiteSpace=wrap;html=1;fillColor=#fff2cc;strokeColor=#d6b656;" vertex="1" parent="1">
          <mxGeometry x="126" y="635" width="120" height="60" as="geometry" />
        </mxCell>
        <mxCell id="61mjYRbphMOwMdPB8GLv-29" value="V&lt;span style=&quot;font-size: 10px&quot;&gt;&lt;sub&gt;t&lt;/sub&gt;&lt;/span&gt;" style="rounded=0;whiteSpace=wrap;html=1;fillColor=#f8cecc;strokeColor=#b85450;" vertex="1" parent="1">
          <mxGeometry x="246" y="635" width="120" height="60" as="geometry" />
        </mxCell>
        <mxCell id="61mjYRbphMOwMdPB8GLv-30" value="V&lt;sub&gt;v&lt;/sub&gt;" style="rounded=0;whiteSpace=wrap;html=1;fillColor=#e1d5e7;strokeColor=#9673a6;" vertex="1" parent="1">
          <mxGeometry x="366" y="635" width="120" height="60" as="geometry" />
        </mxCell>
        <mxCell id="61mjYRbphMOwMdPB8GLv-32" style="edgeStyle=orthogonalEdgeStyle;rounded=0;orthogonalLoop=1;jettySize=auto;html=1;entryX=0;entryY=0;entryDx=0;entryDy=0;" edge="1" parent="1" source="61mjYRbphMOwMdPB8GLv-31" target="61mjYRbphMOwMdPB8GLv-28">
          <mxGeometry relative="1" as="geometry" />
        </mxCell>
        <mxCell id="61mjYRbphMOwMdPB8GLv-33" style="edgeStyle=orthogonalEdgeStyle;rounded=0;orthogonalLoop=1;jettySize=auto;html=1;entryX=1;entryY=0;entryDx=0;entryDy=0;" edge="1" parent="1" source="61mjYRbphMOwMdPB8GLv-31" target="61mjYRbphMOwMdPB8GLv-30">
          <mxGeometry relative="1" as="geometry" />
        </mxCell>
        <mxCell id="61mjYRbphMOwMdPB8GLv-31" value="&lt;b style=&quot;font-size: 16px;&quot;&gt;concatenate&lt;/b&gt;" style="text;whiteSpace=wrap;html=1;align=center;fontSize=16;" vertex="1" parent="1">
          <mxGeometry x="236" y="567" width="140" height="28" as="geometry" />
        </mxCell>
      </root>
    </mxGraphModel>
  </diagram>
</mxfile>
